<mxfile host="app.diagrams.net" agent="Mozilla/5.0 (Windows NT 10.0; Win64; x64; rv:139.0) Gecko/20100101 Firefox/139.0" version="27.1.1" pages="8">
  <diagram id="khxI4DQ46HlH7GRu3Q0X" name="Device List Page">
    <mxGraphModel dx="1678" dy="884" grid="1" gridSize="10" guides="1" tooltips="1" connect="1" arrows="1" fold="1" page="1" pageScale="1" pageWidth="1169" pageHeight="827" math="0" shadow="0">
      <root>
        <mxCell id="0" />
        <mxCell id="1" parent="0" />
        <mxCell id="spnfCB9e1XpUlM8C7SCa-1" value="" style="rounded=0;whiteSpace=wrap;html=1;" vertex="1" parent="1">
          <mxGeometry x="10" y="10" width="1150" height="70" as="geometry" />
        </mxCell>
        <mxCell id="vAdtxSCNh8U652SfT9nN-1" value="" style="shape=table;startSize=0;container=1;collapsible=0;childLayout=tableLayout;fontSize=16;swimlaneLine=1;" vertex="1" parent="1">
          <mxGeometry x="20" y="160" width="1080" height="620" as="geometry" />
        </mxCell>
        <mxCell id="vAdtxSCNh8U652SfT9nN-2" value="" style="shape=tableRow;horizontal=0;startSize=0;swimlaneHead=0;swimlaneBody=0;strokeColor=inherit;top=0;left=0;bottom=0;right=0;collapsible=0;dropTarget=0;fillColor=none;points=[[0,0.5],[1,0.5]];portConstraint=eastwest;fontSize=16;" vertex="1" parent="vAdtxSCNh8U652SfT9nN-1">
          <mxGeometry width="1080" height="48" as="geometry" />
        </mxCell>
        <mxCell id="vAdtxSCNh8U652SfT9nN-3" value="" style="shape=partialRectangle;html=1;whiteSpace=wrap;connectable=0;strokeColor=inherit;overflow=hidden;fillColor=none;top=0;left=0;bottom=0;right=0;pointerEvents=1;fontSize=16;" vertex="1" parent="vAdtxSCNh8U652SfT9nN-2">
          <mxGeometry width="270" height="48" as="geometry">
            <mxRectangle width="270" height="48" as="alternateBounds" />
          </mxGeometry>
        </mxCell>
        <mxCell id="vAdtxSCNh8U652SfT9nN-4" value="" style="shape=partialRectangle;html=1;whiteSpace=wrap;connectable=0;strokeColor=inherit;overflow=hidden;fillColor=none;top=0;left=0;bottom=0;right=0;pointerEvents=1;fontSize=16;" vertex="1" parent="vAdtxSCNh8U652SfT9nN-2">
          <mxGeometry x="270" width="271" height="48" as="geometry">
            <mxRectangle width="271" height="48" as="alternateBounds" />
          </mxGeometry>
        </mxCell>
        <mxCell id="vAdtxSCNh8U652SfT9nN-5" value="" style="shape=partialRectangle;html=1;whiteSpace=wrap;connectable=0;strokeColor=inherit;overflow=hidden;fillColor=none;top=0;left=0;bottom=0;right=0;pointerEvents=1;fontSize=16;" vertex="1" parent="vAdtxSCNh8U652SfT9nN-2">
          <mxGeometry x="541" width="269" height="48" as="geometry">
            <mxRectangle width="269" height="48" as="alternateBounds" />
          </mxGeometry>
        </mxCell>
        <mxCell id="vAdtxSCNh8U652SfT9nN-68" style="shape=partialRectangle;html=1;whiteSpace=wrap;connectable=0;strokeColor=inherit;overflow=hidden;fillColor=none;top=0;left=0;bottom=0;right=0;pointerEvents=1;fontSize=16;" vertex="1" parent="vAdtxSCNh8U652SfT9nN-2">
          <mxGeometry x="810" width="270" height="48" as="geometry">
            <mxRectangle width="270" height="48" as="alternateBounds" />
          </mxGeometry>
        </mxCell>
        <mxCell id="vAdtxSCNh8U652SfT9nN-6" value="" style="shape=tableRow;horizontal=0;startSize=0;swimlaneHead=0;swimlaneBody=0;strokeColor=inherit;top=0;left=0;bottom=0;right=0;collapsible=0;dropTarget=0;fillColor=none;points=[[0,0.5],[1,0.5]];portConstraint=eastwest;fontSize=16;" vertex="1" parent="vAdtxSCNh8U652SfT9nN-1">
          <mxGeometry y="48" width="1080" height="45" as="geometry" />
        </mxCell>
        <mxCell id="vAdtxSCNh8U652SfT9nN-7" value="" style="shape=partialRectangle;html=1;whiteSpace=wrap;connectable=0;strokeColor=inherit;overflow=hidden;fillColor=none;top=0;left=0;bottom=0;right=0;pointerEvents=1;fontSize=16;" vertex="1" parent="vAdtxSCNh8U652SfT9nN-6">
          <mxGeometry width="270" height="45" as="geometry">
            <mxRectangle width="270" height="45" as="alternateBounds" />
          </mxGeometry>
        </mxCell>
        <mxCell id="vAdtxSCNh8U652SfT9nN-8" value="" style="shape=partialRectangle;html=1;whiteSpace=wrap;connectable=0;strokeColor=inherit;overflow=hidden;fillColor=none;top=0;left=0;bottom=0;right=0;pointerEvents=1;fontSize=16;" vertex="1" parent="vAdtxSCNh8U652SfT9nN-6">
          <mxGeometry x="270" width="271" height="45" as="geometry">
            <mxRectangle width="271" height="45" as="alternateBounds" />
          </mxGeometry>
        </mxCell>
        <mxCell id="vAdtxSCNh8U652SfT9nN-9" value="" style="shape=partialRectangle;html=1;whiteSpace=wrap;connectable=0;strokeColor=inherit;overflow=hidden;fillColor=none;top=0;left=0;bottom=0;right=0;pointerEvents=1;fontSize=16;" vertex="1" parent="vAdtxSCNh8U652SfT9nN-6">
          <mxGeometry x="541" width="269" height="45" as="geometry">
            <mxRectangle width="269" height="45" as="alternateBounds" />
          </mxGeometry>
        </mxCell>
        <mxCell id="vAdtxSCNh8U652SfT9nN-69" style="shape=partialRectangle;html=1;whiteSpace=wrap;connectable=0;strokeColor=inherit;overflow=hidden;fillColor=none;top=0;left=0;bottom=0;right=0;pointerEvents=1;fontSize=16;" vertex="1" parent="vAdtxSCNh8U652SfT9nN-6">
          <mxGeometry x="810" width="270" height="45" as="geometry">
            <mxRectangle width="270" height="45" as="alternateBounds" />
          </mxGeometry>
        </mxCell>
        <mxCell id="vAdtxSCNh8U652SfT9nN-10" value="" style="shape=tableRow;horizontal=0;startSize=0;swimlaneHead=0;swimlaneBody=0;strokeColor=inherit;top=0;left=0;bottom=0;right=0;collapsible=0;dropTarget=0;fillColor=none;points=[[0,0.5],[1,0.5]];portConstraint=eastwest;fontSize=16;" vertex="1" parent="vAdtxSCNh8U652SfT9nN-1">
          <mxGeometry y="93" width="1080" height="48" as="geometry" />
        </mxCell>
        <mxCell id="vAdtxSCNh8U652SfT9nN-11" value="" style="shape=partialRectangle;html=1;whiteSpace=wrap;connectable=0;strokeColor=inherit;overflow=hidden;fillColor=none;top=0;left=0;bottom=0;right=0;pointerEvents=1;fontSize=16;" vertex="1" parent="vAdtxSCNh8U652SfT9nN-10">
          <mxGeometry width="270" height="48" as="geometry">
            <mxRectangle width="270" height="48" as="alternateBounds" />
          </mxGeometry>
        </mxCell>
        <mxCell id="vAdtxSCNh8U652SfT9nN-12" value="" style="shape=partialRectangle;html=1;whiteSpace=wrap;connectable=0;strokeColor=inherit;overflow=hidden;fillColor=none;top=0;left=0;bottom=0;right=0;pointerEvents=1;fontSize=16;" vertex="1" parent="vAdtxSCNh8U652SfT9nN-10">
          <mxGeometry x="270" width="271" height="48" as="geometry">
            <mxRectangle width="271" height="48" as="alternateBounds" />
          </mxGeometry>
        </mxCell>
        <mxCell id="vAdtxSCNh8U652SfT9nN-13" value="" style="shape=partialRectangle;html=1;whiteSpace=wrap;connectable=0;strokeColor=inherit;overflow=hidden;fillColor=none;top=0;left=0;bottom=0;right=0;pointerEvents=1;fontSize=16;" vertex="1" parent="vAdtxSCNh8U652SfT9nN-10">
          <mxGeometry x="541" width="269" height="48" as="geometry">
            <mxRectangle width="269" height="48" as="alternateBounds" />
          </mxGeometry>
        </mxCell>
        <mxCell id="vAdtxSCNh8U652SfT9nN-70" style="shape=partialRectangle;html=1;whiteSpace=wrap;connectable=0;strokeColor=inherit;overflow=hidden;fillColor=none;top=0;left=0;bottom=0;right=0;pointerEvents=1;fontSize=16;" vertex="1" parent="vAdtxSCNh8U652SfT9nN-10">
          <mxGeometry x="810" width="270" height="48" as="geometry">
            <mxRectangle width="270" height="48" as="alternateBounds" />
          </mxGeometry>
        </mxCell>
        <mxCell id="vAdtxSCNh8U652SfT9nN-28" style="shape=tableRow;horizontal=0;startSize=0;swimlaneHead=0;swimlaneBody=0;strokeColor=inherit;top=0;left=0;bottom=0;right=0;collapsible=0;dropTarget=0;fillColor=none;points=[[0,0.5],[1,0.5]];portConstraint=eastwest;fontSize=16;" vertex="1" parent="vAdtxSCNh8U652SfT9nN-1">
          <mxGeometry y="141" width="1080" height="48" as="geometry" />
        </mxCell>
        <mxCell id="vAdtxSCNh8U652SfT9nN-29" style="shape=partialRectangle;html=1;whiteSpace=wrap;connectable=0;strokeColor=inherit;overflow=hidden;fillColor=none;top=0;left=0;bottom=0;right=0;pointerEvents=1;fontSize=16;" vertex="1" parent="vAdtxSCNh8U652SfT9nN-28">
          <mxGeometry width="270" height="48" as="geometry">
            <mxRectangle width="270" height="48" as="alternateBounds" />
          </mxGeometry>
        </mxCell>
        <mxCell id="vAdtxSCNh8U652SfT9nN-30" style="shape=partialRectangle;html=1;whiteSpace=wrap;connectable=0;strokeColor=inherit;overflow=hidden;fillColor=none;top=0;left=0;bottom=0;right=0;pointerEvents=1;fontSize=16;" vertex="1" parent="vAdtxSCNh8U652SfT9nN-28">
          <mxGeometry x="270" width="271" height="48" as="geometry">
            <mxRectangle width="271" height="48" as="alternateBounds" />
          </mxGeometry>
        </mxCell>
        <mxCell id="vAdtxSCNh8U652SfT9nN-31" style="shape=partialRectangle;html=1;whiteSpace=wrap;connectable=0;strokeColor=inherit;overflow=hidden;fillColor=none;top=0;left=0;bottom=0;right=0;pointerEvents=1;fontSize=16;" vertex="1" parent="vAdtxSCNh8U652SfT9nN-28">
          <mxGeometry x="541" width="269" height="48" as="geometry">
            <mxRectangle width="269" height="48" as="alternateBounds" />
          </mxGeometry>
        </mxCell>
        <mxCell id="vAdtxSCNh8U652SfT9nN-71" style="shape=partialRectangle;html=1;whiteSpace=wrap;connectable=0;strokeColor=inherit;overflow=hidden;fillColor=none;top=0;left=0;bottom=0;right=0;pointerEvents=1;fontSize=16;" vertex="1" parent="vAdtxSCNh8U652SfT9nN-28">
          <mxGeometry x="810" width="270" height="48" as="geometry">
            <mxRectangle width="270" height="48" as="alternateBounds" />
          </mxGeometry>
        </mxCell>
        <mxCell id="vAdtxSCNh8U652SfT9nN-32" style="shape=tableRow;horizontal=0;startSize=0;swimlaneHead=0;swimlaneBody=0;strokeColor=inherit;top=0;left=0;bottom=0;right=0;collapsible=0;dropTarget=0;fillColor=none;points=[[0,0.5],[1,0.5]];portConstraint=eastwest;fontSize=16;" vertex="1" parent="vAdtxSCNh8U652SfT9nN-1">
          <mxGeometry y="189" width="1080" height="48" as="geometry" />
        </mxCell>
        <mxCell id="vAdtxSCNh8U652SfT9nN-33" style="shape=partialRectangle;html=1;whiteSpace=wrap;connectable=0;strokeColor=inherit;overflow=hidden;fillColor=none;top=0;left=0;bottom=0;right=0;pointerEvents=1;fontSize=16;" vertex="1" parent="vAdtxSCNh8U652SfT9nN-32">
          <mxGeometry width="270" height="48" as="geometry">
            <mxRectangle width="270" height="48" as="alternateBounds" />
          </mxGeometry>
        </mxCell>
        <mxCell id="vAdtxSCNh8U652SfT9nN-34" style="shape=partialRectangle;html=1;whiteSpace=wrap;connectable=0;strokeColor=inherit;overflow=hidden;fillColor=none;top=0;left=0;bottom=0;right=0;pointerEvents=1;fontSize=16;" vertex="1" parent="vAdtxSCNh8U652SfT9nN-32">
          <mxGeometry x="270" width="271" height="48" as="geometry">
            <mxRectangle width="271" height="48" as="alternateBounds" />
          </mxGeometry>
        </mxCell>
        <mxCell id="vAdtxSCNh8U652SfT9nN-35" style="shape=partialRectangle;html=1;whiteSpace=wrap;connectable=0;strokeColor=inherit;overflow=hidden;fillColor=none;top=0;left=0;bottom=0;right=0;pointerEvents=1;fontSize=16;" vertex="1" parent="vAdtxSCNh8U652SfT9nN-32">
          <mxGeometry x="541" width="269" height="48" as="geometry">
            <mxRectangle width="269" height="48" as="alternateBounds" />
          </mxGeometry>
        </mxCell>
        <mxCell id="vAdtxSCNh8U652SfT9nN-72" style="shape=partialRectangle;html=1;whiteSpace=wrap;connectable=0;strokeColor=inherit;overflow=hidden;fillColor=none;top=0;left=0;bottom=0;right=0;pointerEvents=1;fontSize=16;" vertex="1" parent="vAdtxSCNh8U652SfT9nN-32">
          <mxGeometry x="810" width="270" height="48" as="geometry">
            <mxRectangle width="270" height="48" as="alternateBounds" />
          </mxGeometry>
        </mxCell>
        <mxCell id="vAdtxSCNh8U652SfT9nN-36" style="shape=tableRow;horizontal=0;startSize=0;swimlaneHead=0;swimlaneBody=0;strokeColor=inherit;top=0;left=0;bottom=0;right=0;collapsible=0;dropTarget=0;fillColor=none;points=[[0,0.5],[1,0.5]];portConstraint=eastwest;fontSize=16;" vertex="1" parent="vAdtxSCNh8U652SfT9nN-1">
          <mxGeometry y="237" width="1080" height="47" as="geometry" />
        </mxCell>
        <mxCell id="vAdtxSCNh8U652SfT9nN-37" style="shape=partialRectangle;html=1;whiteSpace=wrap;connectable=0;strokeColor=inherit;overflow=hidden;fillColor=none;top=0;left=0;bottom=0;right=0;pointerEvents=1;fontSize=16;" vertex="1" parent="vAdtxSCNh8U652SfT9nN-36">
          <mxGeometry width="270" height="47" as="geometry">
            <mxRectangle width="270" height="47" as="alternateBounds" />
          </mxGeometry>
        </mxCell>
        <mxCell id="vAdtxSCNh8U652SfT9nN-38" style="shape=partialRectangle;html=1;whiteSpace=wrap;connectable=0;strokeColor=inherit;overflow=hidden;fillColor=none;top=0;left=0;bottom=0;right=0;pointerEvents=1;fontSize=16;" vertex="1" parent="vAdtxSCNh8U652SfT9nN-36">
          <mxGeometry x="270" width="271" height="47" as="geometry">
            <mxRectangle width="271" height="47" as="alternateBounds" />
          </mxGeometry>
        </mxCell>
        <mxCell id="vAdtxSCNh8U652SfT9nN-39" style="shape=partialRectangle;html=1;whiteSpace=wrap;connectable=0;strokeColor=inherit;overflow=hidden;fillColor=none;top=0;left=0;bottom=0;right=0;pointerEvents=1;fontSize=16;" vertex="1" parent="vAdtxSCNh8U652SfT9nN-36">
          <mxGeometry x="541" width="269" height="47" as="geometry">
            <mxRectangle width="269" height="47" as="alternateBounds" />
          </mxGeometry>
        </mxCell>
        <mxCell id="vAdtxSCNh8U652SfT9nN-73" style="shape=partialRectangle;html=1;whiteSpace=wrap;connectable=0;strokeColor=inherit;overflow=hidden;fillColor=none;top=0;left=0;bottom=0;right=0;pointerEvents=1;fontSize=16;" vertex="1" parent="vAdtxSCNh8U652SfT9nN-36">
          <mxGeometry x="810" width="270" height="47" as="geometry">
            <mxRectangle width="270" height="47" as="alternateBounds" />
          </mxGeometry>
        </mxCell>
        <mxCell id="vAdtxSCNh8U652SfT9nN-40" style="shape=tableRow;horizontal=0;startSize=0;swimlaneHead=0;swimlaneBody=0;strokeColor=inherit;top=0;left=0;bottom=0;right=0;collapsible=0;dropTarget=0;fillColor=none;points=[[0,0.5],[1,0.5]];portConstraint=eastwest;fontSize=16;" vertex="1" parent="vAdtxSCNh8U652SfT9nN-1">
          <mxGeometry y="284" width="1080" height="49" as="geometry" />
        </mxCell>
        <mxCell id="vAdtxSCNh8U652SfT9nN-41" style="shape=partialRectangle;html=1;whiteSpace=wrap;connectable=0;strokeColor=inherit;overflow=hidden;fillColor=none;top=0;left=0;bottom=0;right=0;pointerEvents=1;fontSize=16;" vertex="1" parent="vAdtxSCNh8U652SfT9nN-40">
          <mxGeometry width="270" height="49" as="geometry">
            <mxRectangle width="270" height="49" as="alternateBounds" />
          </mxGeometry>
        </mxCell>
        <mxCell id="vAdtxSCNh8U652SfT9nN-42" style="shape=partialRectangle;html=1;whiteSpace=wrap;connectable=0;strokeColor=inherit;overflow=hidden;fillColor=none;top=0;left=0;bottom=0;right=0;pointerEvents=1;fontSize=16;" vertex="1" parent="vAdtxSCNh8U652SfT9nN-40">
          <mxGeometry x="270" width="271" height="49" as="geometry">
            <mxRectangle width="271" height="49" as="alternateBounds" />
          </mxGeometry>
        </mxCell>
        <mxCell id="vAdtxSCNh8U652SfT9nN-43" style="shape=partialRectangle;html=1;whiteSpace=wrap;connectable=0;strokeColor=inherit;overflow=hidden;fillColor=none;top=0;left=0;bottom=0;right=0;pointerEvents=1;fontSize=16;" vertex="1" parent="vAdtxSCNh8U652SfT9nN-40">
          <mxGeometry x="541" width="269" height="49" as="geometry">
            <mxRectangle width="269" height="49" as="alternateBounds" />
          </mxGeometry>
        </mxCell>
        <mxCell id="vAdtxSCNh8U652SfT9nN-74" style="shape=partialRectangle;html=1;whiteSpace=wrap;connectable=0;strokeColor=inherit;overflow=hidden;fillColor=none;top=0;left=0;bottom=0;right=0;pointerEvents=1;fontSize=16;" vertex="1" parent="vAdtxSCNh8U652SfT9nN-40">
          <mxGeometry x="810" width="270" height="49" as="geometry">
            <mxRectangle width="270" height="49" as="alternateBounds" />
          </mxGeometry>
        </mxCell>
        <mxCell id="vAdtxSCNh8U652SfT9nN-44" style="shape=tableRow;horizontal=0;startSize=0;swimlaneHead=0;swimlaneBody=0;strokeColor=inherit;top=0;left=0;bottom=0;right=0;collapsible=0;dropTarget=0;fillColor=none;points=[[0,0.5],[1,0.5]];portConstraint=eastwest;fontSize=16;" vertex="1" parent="vAdtxSCNh8U652SfT9nN-1">
          <mxGeometry y="333" width="1080" height="47" as="geometry" />
        </mxCell>
        <mxCell id="vAdtxSCNh8U652SfT9nN-45" style="shape=partialRectangle;html=1;whiteSpace=wrap;connectable=0;strokeColor=inherit;overflow=hidden;fillColor=none;top=0;left=0;bottom=0;right=0;pointerEvents=1;fontSize=16;" vertex="1" parent="vAdtxSCNh8U652SfT9nN-44">
          <mxGeometry width="270" height="47" as="geometry">
            <mxRectangle width="270" height="47" as="alternateBounds" />
          </mxGeometry>
        </mxCell>
        <mxCell id="vAdtxSCNh8U652SfT9nN-46" style="shape=partialRectangle;html=1;whiteSpace=wrap;connectable=0;strokeColor=inherit;overflow=hidden;fillColor=none;top=0;left=0;bottom=0;right=0;pointerEvents=1;fontSize=16;" vertex="1" parent="vAdtxSCNh8U652SfT9nN-44">
          <mxGeometry x="270" width="271" height="47" as="geometry">
            <mxRectangle width="271" height="47" as="alternateBounds" />
          </mxGeometry>
        </mxCell>
        <mxCell id="vAdtxSCNh8U652SfT9nN-47" style="shape=partialRectangle;html=1;whiteSpace=wrap;connectable=0;strokeColor=inherit;overflow=hidden;fillColor=none;top=0;left=0;bottom=0;right=0;pointerEvents=1;fontSize=16;" vertex="1" parent="vAdtxSCNh8U652SfT9nN-44">
          <mxGeometry x="541" width="269" height="47" as="geometry">
            <mxRectangle width="269" height="47" as="alternateBounds" />
          </mxGeometry>
        </mxCell>
        <mxCell id="vAdtxSCNh8U652SfT9nN-75" style="shape=partialRectangle;html=1;whiteSpace=wrap;connectable=0;strokeColor=inherit;overflow=hidden;fillColor=none;top=0;left=0;bottom=0;right=0;pointerEvents=1;fontSize=16;" vertex="1" parent="vAdtxSCNh8U652SfT9nN-44">
          <mxGeometry x="810" width="270" height="47" as="geometry">
            <mxRectangle width="270" height="47" as="alternateBounds" />
          </mxGeometry>
        </mxCell>
        <mxCell id="vAdtxSCNh8U652SfT9nN-48" style="shape=tableRow;horizontal=0;startSize=0;swimlaneHead=0;swimlaneBody=0;strokeColor=inherit;top=0;left=0;bottom=0;right=0;collapsible=0;dropTarget=0;fillColor=none;points=[[0,0.5],[1,0.5]];portConstraint=eastwest;fontSize=16;" vertex="1" parent="vAdtxSCNh8U652SfT9nN-1">
          <mxGeometry y="380" width="1080" height="49" as="geometry" />
        </mxCell>
        <mxCell id="vAdtxSCNh8U652SfT9nN-49" style="shape=partialRectangle;html=1;whiteSpace=wrap;connectable=0;strokeColor=inherit;overflow=hidden;fillColor=none;top=0;left=0;bottom=0;right=0;pointerEvents=1;fontSize=16;" vertex="1" parent="vAdtxSCNh8U652SfT9nN-48">
          <mxGeometry width="270" height="49" as="geometry">
            <mxRectangle width="270" height="49" as="alternateBounds" />
          </mxGeometry>
        </mxCell>
        <mxCell id="vAdtxSCNh8U652SfT9nN-50" style="shape=partialRectangle;html=1;whiteSpace=wrap;connectable=0;strokeColor=inherit;overflow=hidden;fillColor=none;top=0;left=0;bottom=0;right=0;pointerEvents=1;fontSize=16;" vertex="1" parent="vAdtxSCNh8U652SfT9nN-48">
          <mxGeometry x="270" width="271" height="49" as="geometry">
            <mxRectangle width="271" height="49" as="alternateBounds" />
          </mxGeometry>
        </mxCell>
        <mxCell id="vAdtxSCNh8U652SfT9nN-51" style="shape=partialRectangle;html=1;whiteSpace=wrap;connectable=0;strokeColor=inherit;overflow=hidden;fillColor=none;top=0;left=0;bottom=0;right=0;pointerEvents=1;fontSize=16;" vertex="1" parent="vAdtxSCNh8U652SfT9nN-48">
          <mxGeometry x="541" width="269" height="49" as="geometry">
            <mxRectangle width="269" height="49" as="alternateBounds" />
          </mxGeometry>
        </mxCell>
        <mxCell id="vAdtxSCNh8U652SfT9nN-76" style="shape=partialRectangle;html=1;whiteSpace=wrap;connectable=0;strokeColor=inherit;overflow=hidden;fillColor=none;top=0;left=0;bottom=0;right=0;pointerEvents=1;fontSize=16;" vertex="1" parent="vAdtxSCNh8U652SfT9nN-48">
          <mxGeometry x="810" width="270" height="49" as="geometry">
            <mxRectangle width="270" height="49" as="alternateBounds" />
          </mxGeometry>
        </mxCell>
        <mxCell id="vAdtxSCNh8U652SfT9nN-52" style="shape=tableRow;horizontal=0;startSize=0;swimlaneHead=0;swimlaneBody=0;strokeColor=inherit;top=0;left=0;bottom=0;right=0;collapsible=0;dropTarget=0;fillColor=none;points=[[0,0.5],[1,0.5]];portConstraint=eastwest;fontSize=16;" vertex="1" parent="vAdtxSCNh8U652SfT9nN-1">
          <mxGeometry y="429" width="1080" height="47" as="geometry" />
        </mxCell>
        <mxCell id="vAdtxSCNh8U652SfT9nN-53" style="shape=partialRectangle;html=1;whiteSpace=wrap;connectable=0;strokeColor=inherit;overflow=hidden;fillColor=none;top=0;left=0;bottom=0;right=0;pointerEvents=1;fontSize=16;" vertex="1" parent="vAdtxSCNh8U652SfT9nN-52">
          <mxGeometry width="270" height="47" as="geometry">
            <mxRectangle width="270" height="47" as="alternateBounds" />
          </mxGeometry>
        </mxCell>
        <mxCell id="vAdtxSCNh8U652SfT9nN-54" style="shape=partialRectangle;html=1;whiteSpace=wrap;connectable=0;strokeColor=inherit;overflow=hidden;fillColor=none;top=0;left=0;bottom=0;right=0;pointerEvents=1;fontSize=16;" vertex="1" parent="vAdtxSCNh8U652SfT9nN-52">
          <mxGeometry x="270" width="271" height="47" as="geometry">
            <mxRectangle width="271" height="47" as="alternateBounds" />
          </mxGeometry>
        </mxCell>
        <mxCell id="vAdtxSCNh8U652SfT9nN-55" style="shape=partialRectangle;html=1;whiteSpace=wrap;connectable=0;strokeColor=inherit;overflow=hidden;fillColor=none;top=0;left=0;bottom=0;right=0;pointerEvents=1;fontSize=16;" vertex="1" parent="vAdtxSCNh8U652SfT9nN-52">
          <mxGeometry x="541" width="269" height="47" as="geometry">
            <mxRectangle width="269" height="47" as="alternateBounds" />
          </mxGeometry>
        </mxCell>
        <mxCell id="vAdtxSCNh8U652SfT9nN-77" style="shape=partialRectangle;html=1;whiteSpace=wrap;connectable=0;strokeColor=inherit;overflow=hidden;fillColor=none;top=0;left=0;bottom=0;right=0;pointerEvents=1;fontSize=16;" vertex="1" parent="vAdtxSCNh8U652SfT9nN-52">
          <mxGeometry x="810" width="270" height="47" as="geometry">
            <mxRectangle width="270" height="47" as="alternateBounds" />
          </mxGeometry>
        </mxCell>
        <mxCell id="vAdtxSCNh8U652SfT9nN-56" style="shape=tableRow;horizontal=0;startSize=0;swimlaneHead=0;swimlaneBody=0;strokeColor=inherit;top=0;left=0;bottom=0;right=0;collapsible=0;dropTarget=0;fillColor=none;points=[[0,0.5],[1,0.5]];portConstraint=eastwest;fontSize=16;" vertex="1" parent="vAdtxSCNh8U652SfT9nN-1">
          <mxGeometry y="476" width="1080" height="48" as="geometry" />
        </mxCell>
        <mxCell id="vAdtxSCNh8U652SfT9nN-57" style="shape=partialRectangle;html=1;whiteSpace=wrap;connectable=0;strokeColor=inherit;overflow=hidden;fillColor=none;top=0;left=0;bottom=0;right=0;pointerEvents=1;fontSize=16;" vertex="1" parent="vAdtxSCNh8U652SfT9nN-56">
          <mxGeometry width="270" height="48" as="geometry">
            <mxRectangle width="270" height="48" as="alternateBounds" />
          </mxGeometry>
        </mxCell>
        <mxCell id="vAdtxSCNh8U652SfT9nN-58" style="shape=partialRectangle;html=1;whiteSpace=wrap;connectable=0;strokeColor=inherit;overflow=hidden;fillColor=none;top=0;left=0;bottom=0;right=0;pointerEvents=1;fontSize=16;" vertex="1" parent="vAdtxSCNh8U652SfT9nN-56">
          <mxGeometry x="270" width="271" height="48" as="geometry">
            <mxRectangle width="271" height="48" as="alternateBounds" />
          </mxGeometry>
        </mxCell>
        <mxCell id="vAdtxSCNh8U652SfT9nN-59" style="shape=partialRectangle;html=1;whiteSpace=wrap;connectable=0;strokeColor=inherit;overflow=hidden;fillColor=none;top=0;left=0;bottom=0;right=0;pointerEvents=1;fontSize=16;" vertex="1" parent="vAdtxSCNh8U652SfT9nN-56">
          <mxGeometry x="541" width="269" height="48" as="geometry">
            <mxRectangle width="269" height="48" as="alternateBounds" />
          </mxGeometry>
        </mxCell>
        <mxCell id="vAdtxSCNh8U652SfT9nN-78" style="shape=partialRectangle;html=1;whiteSpace=wrap;connectable=0;strokeColor=inherit;overflow=hidden;fillColor=none;top=0;left=0;bottom=0;right=0;pointerEvents=1;fontSize=16;" vertex="1" parent="vAdtxSCNh8U652SfT9nN-56">
          <mxGeometry x="810" width="270" height="48" as="geometry">
            <mxRectangle width="270" height="48" as="alternateBounds" />
          </mxGeometry>
        </mxCell>
        <mxCell id="vAdtxSCNh8U652SfT9nN-60" style="shape=tableRow;horizontal=0;startSize=0;swimlaneHead=0;swimlaneBody=0;strokeColor=inherit;top=0;left=0;bottom=0;right=0;collapsible=0;dropTarget=0;fillColor=none;points=[[0,0.5],[1,0.5]];portConstraint=eastwest;fontSize=16;" vertex="1" parent="vAdtxSCNh8U652SfT9nN-1">
          <mxGeometry y="524" width="1080" height="48" as="geometry" />
        </mxCell>
        <mxCell id="vAdtxSCNh8U652SfT9nN-61" style="shape=partialRectangle;html=1;whiteSpace=wrap;connectable=0;strokeColor=inherit;overflow=hidden;fillColor=none;top=0;left=0;bottom=0;right=0;pointerEvents=1;fontSize=16;" vertex="1" parent="vAdtxSCNh8U652SfT9nN-60">
          <mxGeometry width="270" height="48" as="geometry">
            <mxRectangle width="270" height="48" as="alternateBounds" />
          </mxGeometry>
        </mxCell>
        <mxCell id="vAdtxSCNh8U652SfT9nN-62" style="shape=partialRectangle;html=1;whiteSpace=wrap;connectable=0;strokeColor=inherit;overflow=hidden;fillColor=none;top=0;left=0;bottom=0;right=0;pointerEvents=1;fontSize=16;" vertex="1" parent="vAdtxSCNh8U652SfT9nN-60">
          <mxGeometry x="270" width="271" height="48" as="geometry">
            <mxRectangle width="271" height="48" as="alternateBounds" />
          </mxGeometry>
        </mxCell>
        <mxCell id="vAdtxSCNh8U652SfT9nN-63" style="shape=partialRectangle;html=1;whiteSpace=wrap;connectable=0;strokeColor=inherit;overflow=hidden;fillColor=none;top=0;left=0;bottom=0;right=0;pointerEvents=1;fontSize=16;" vertex="1" parent="vAdtxSCNh8U652SfT9nN-60">
          <mxGeometry x="541" width="269" height="48" as="geometry">
            <mxRectangle width="269" height="48" as="alternateBounds" />
          </mxGeometry>
        </mxCell>
        <mxCell id="vAdtxSCNh8U652SfT9nN-79" style="shape=partialRectangle;html=1;whiteSpace=wrap;connectable=0;strokeColor=inherit;overflow=hidden;fillColor=none;top=0;left=0;bottom=0;right=0;pointerEvents=1;fontSize=16;" vertex="1" parent="vAdtxSCNh8U652SfT9nN-60">
          <mxGeometry x="810" width="270" height="48" as="geometry">
            <mxRectangle width="270" height="48" as="alternateBounds" />
          </mxGeometry>
        </mxCell>
        <mxCell id="vAdtxSCNh8U652SfT9nN-64" style="shape=tableRow;horizontal=0;startSize=0;swimlaneHead=0;swimlaneBody=0;strokeColor=inherit;top=0;left=0;bottom=0;right=0;collapsible=0;dropTarget=0;fillColor=none;points=[[0,0.5],[1,0.5]];portConstraint=eastwest;fontSize=16;" vertex="1" parent="vAdtxSCNh8U652SfT9nN-1">
          <mxGeometry y="572" width="1080" height="48" as="geometry" />
        </mxCell>
        <mxCell id="vAdtxSCNh8U652SfT9nN-65" style="shape=partialRectangle;html=1;whiteSpace=wrap;connectable=0;strokeColor=inherit;overflow=hidden;fillColor=none;top=0;left=0;bottom=0;right=0;pointerEvents=1;fontSize=16;" vertex="1" parent="vAdtxSCNh8U652SfT9nN-64">
          <mxGeometry width="270" height="48" as="geometry">
            <mxRectangle width="270" height="48" as="alternateBounds" />
          </mxGeometry>
        </mxCell>
        <mxCell id="vAdtxSCNh8U652SfT9nN-66" style="shape=partialRectangle;html=1;whiteSpace=wrap;connectable=0;strokeColor=inherit;overflow=hidden;fillColor=none;top=0;left=0;bottom=0;right=0;pointerEvents=1;fontSize=16;" vertex="1" parent="vAdtxSCNh8U652SfT9nN-64">
          <mxGeometry x="270" width="271" height="48" as="geometry">
            <mxRectangle width="271" height="48" as="alternateBounds" />
          </mxGeometry>
        </mxCell>
        <mxCell id="vAdtxSCNh8U652SfT9nN-67" style="shape=partialRectangle;html=1;whiteSpace=wrap;connectable=0;strokeColor=inherit;overflow=hidden;fillColor=none;top=0;left=0;bottom=0;right=0;pointerEvents=1;fontSize=16;" vertex="1" parent="vAdtxSCNh8U652SfT9nN-64">
          <mxGeometry x="541" width="269" height="48" as="geometry">
            <mxRectangle width="269" height="48" as="alternateBounds" />
          </mxGeometry>
        </mxCell>
        <mxCell id="vAdtxSCNh8U652SfT9nN-80" style="shape=partialRectangle;html=1;whiteSpace=wrap;connectable=0;strokeColor=inherit;overflow=hidden;fillColor=none;top=0;left=0;bottom=0;right=0;pointerEvents=1;fontSize=16;" vertex="1" parent="vAdtxSCNh8U652SfT9nN-64">
          <mxGeometry x="810" width="270" height="48" as="geometry">
            <mxRectangle width="270" height="48" as="alternateBounds" />
          </mxGeometry>
        </mxCell>
        <mxCell id="vAdtxSCNh8U652SfT9nN-81" value="Name" style="text;strokeColor=none;fillColor=none;html=1;fontSize=24;fontStyle=1;verticalAlign=middle;align=center;" vertex="1" parent="1">
          <mxGeometry x="70" y="164" width="170" height="40" as="geometry" />
        </mxCell>
        <mxCell id="vAdtxSCNh8U652SfT9nN-82" value="Delete" style="text;strokeColor=none;fillColor=none;html=1;fontSize=24;fontStyle=1;verticalAlign=middle;align=center;" vertex="1" parent="1">
          <mxGeometry x="340" y="164" width="160" height="40" as="geometry" />
        </mxCell>
        <mxCell id="vAdtxSCNh8U652SfT9nN-83" value="Edit" style="text;strokeColor=none;fillColor=none;html=1;fontSize=24;fontStyle=1;verticalAlign=middle;align=center;" vertex="1" parent="1">
          <mxGeometry x="610" y="164" width="160" height="40" as="geometry" />
        </mxCell>
        <mxCell id="vAdtxSCNh8U652SfT9nN-84" value="View Counts" style="text;strokeColor=none;fillColor=none;html=1;fontSize=24;fontStyle=1;verticalAlign=middle;align=center;" vertex="1" parent="1">
          <mxGeometry x="890" y="164" width="160" height="40" as="geometry" />
        </mxCell>
        <mxCell id="vAdtxSCNh8U652SfT9nN-86" value="App Nav Bar Menu" style="text;strokeColor=none;fillColor=none;html=1;fontSize=24;fontStyle=1;verticalAlign=middle;align=center;" vertex="1" parent="1">
          <mxGeometry x="460" y="25" width="250" height="40" as="geometry" />
        </mxCell>
        <mxCell id="Yua7cjV3qeu96Og5LBfV-1" value="" style="shape=image;html=1;verticalAlign=top;verticalLabelPosition=bottom;labelBackgroundColor=#ffffff;imageAspect=0;aspect=fixed;image=https://cdn4.iconfinder.com/data/icons/evil-icons-user-interface/64/menu-128.png" vertex="1" parent="1">
          <mxGeometry x="20" y="15" width="60" height="60" as="geometry" />
        </mxCell>
        <mxCell id="rxG2Dj7wDqJCTIP3Ryzs-4" value="" style="rounded=0;whiteSpace=wrap;html=1;" vertex="1" parent="1">
          <mxGeometry x="900" y="90" width="200" height="60" as="geometry" />
        </mxCell>
        <mxCell id="rxG2Dj7wDqJCTIP3Ryzs-2" value="" style="shape=image;html=1;verticalAlign=top;verticalLabelPosition=bottom;labelBackgroundColor=#ffffff;imageAspect=0;aspect=fixed;image=https://cdn3.iconfinder.com/data/icons/web-ui-3/128/Plus-2-128.png" vertex="1" parent="1">
          <mxGeometry x="910" y="95" width="50" height="50" as="geometry" />
        </mxCell>
        <mxCell id="rxG2Dj7wDqJCTIP3Ryzs-6" value="Add Device" style="text;strokeColor=none;fillColor=none;html=1;fontSize=24;fontStyle=1;verticalAlign=middle;align=center;" vertex="1" parent="1">
          <mxGeometry x="960" y="100" width="140" height="40" as="geometry" />
        </mxCell>
        <mxCell id="rxG2Dj7wDqJCTIP3Ryzs-8" value="Name" style="text;strokeColor=none;fillColor=none;html=1;fontSize=24;fontStyle=1;verticalAlign=middle;align=center;" vertex="1" parent="1">
          <mxGeometry x="70" y="210" width="170" height="40" as="geometry" />
        </mxCell>
        <mxCell id="rxG2Dj7wDqJCTIP3Ryzs-9" value="Delete" style="text;strokeColor=none;fillColor=none;html=1;fontSize=24;fontStyle=1;verticalAlign=middle;align=center;" vertex="1" parent="1">
          <mxGeometry x="340" y="210" width="160" height="40" as="geometry" />
        </mxCell>
        <mxCell id="rxG2Dj7wDqJCTIP3Ryzs-10" value="Edit" style="text;strokeColor=none;fillColor=none;html=1;fontSize=24;fontStyle=1;verticalAlign=middle;align=center;" vertex="1" parent="1">
          <mxGeometry x="610" y="210" width="160" height="40" as="geometry" />
        </mxCell>
        <mxCell id="rxG2Dj7wDqJCTIP3Ryzs-11" value="View Counts" style="text;strokeColor=none;fillColor=none;html=1;fontSize=24;fontStyle=1;verticalAlign=middle;align=center;" vertex="1" parent="1">
          <mxGeometry x="890" y="210" width="160" height="40" as="geometry" />
        </mxCell>
        <mxCell id="rxG2Dj7wDqJCTIP3Ryzs-41" value="Name" style="text;strokeColor=none;fillColor=none;html=1;fontSize=24;fontStyle=1;verticalAlign=middle;align=center;" vertex="1" parent="1">
          <mxGeometry x="70" y="260" width="170" height="40" as="geometry" />
        </mxCell>
        <mxCell id="rxG2Dj7wDqJCTIP3Ryzs-42" value="Delete" style="text;strokeColor=none;fillColor=none;html=1;fontSize=24;fontStyle=1;verticalAlign=middle;align=center;" vertex="1" parent="1">
          <mxGeometry x="340" y="260" width="160" height="40" as="geometry" />
        </mxCell>
        <mxCell id="rxG2Dj7wDqJCTIP3Ryzs-43" value="Edit" style="text;strokeColor=none;fillColor=none;html=1;fontSize=24;fontStyle=1;verticalAlign=middle;align=center;" vertex="1" parent="1">
          <mxGeometry x="610" y="260" width="160" height="40" as="geometry" />
        </mxCell>
        <mxCell id="rxG2Dj7wDqJCTIP3Ryzs-44" value="View Counts" style="text;strokeColor=none;fillColor=none;html=1;fontSize=24;fontStyle=1;verticalAlign=middle;align=center;" vertex="1" parent="1">
          <mxGeometry x="890" y="260" width="160" height="40" as="geometry" />
        </mxCell>
        <mxCell id="rxG2Dj7wDqJCTIP3Ryzs-49" value="Name" style="text;strokeColor=none;fillColor=none;html=1;fontSize=24;fontStyle=1;verticalAlign=middle;align=center;" vertex="1" parent="1">
          <mxGeometry x="70" y="310" width="170" height="40" as="geometry" />
        </mxCell>
        <mxCell id="rxG2Dj7wDqJCTIP3Ryzs-50" value="Delete" style="text;strokeColor=none;fillColor=none;html=1;fontSize=24;fontStyle=1;verticalAlign=middle;align=center;" vertex="1" parent="1">
          <mxGeometry x="340" y="310" width="160" height="40" as="geometry" />
        </mxCell>
        <mxCell id="rxG2Dj7wDqJCTIP3Ryzs-51" value="Edit" style="text;strokeColor=none;fillColor=none;html=1;fontSize=24;fontStyle=1;verticalAlign=middle;align=center;" vertex="1" parent="1">
          <mxGeometry x="610" y="310" width="160" height="40" as="geometry" />
        </mxCell>
        <mxCell id="rxG2Dj7wDqJCTIP3Ryzs-52" value="View Counts" style="text;strokeColor=none;fillColor=none;html=1;fontSize=24;fontStyle=1;verticalAlign=middle;align=center;" vertex="1" parent="1">
          <mxGeometry x="890" y="310" width="160" height="40" as="geometry" />
        </mxCell>
        <mxCell id="rxG2Dj7wDqJCTIP3Ryzs-53" value="Name" style="text;strokeColor=none;fillColor=none;html=1;fontSize=24;fontStyle=1;verticalAlign=middle;align=center;" vertex="1" parent="1">
          <mxGeometry x="70" y="360" width="170" height="40" as="geometry" />
        </mxCell>
        <mxCell id="rxG2Dj7wDqJCTIP3Ryzs-54" value="Delete" style="text;strokeColor=none;fillColor=none;html=1;fontSize=24;fontStyle=1;verticalAlign=middle;align=center;" vertex="1" parent="1">
          <mxGeometry x="340" y="360" width="160" height="40" as="geometry" />
        </mxCell>
        <mxCell id="rxG2Dj7wDqJCTIP3Ryzs-55" value="Edit" style="text;strokeColor=none;fillColor=none;html=1;fontSize=24;fontStyle=1;verticalAlign=middle;align=center;" vertex="1" parent="1">
          <mxGeometry x="610" y="350" width="160" height="40" as="geometry" />
        </mxCell>
        <mxCell id="rxG2Dj7wDqJCTIP3Ryzs-56" value="View Counts" style="text;strokeColor=none;fillColor=none;html=1;fontSize=24;fontStyle=1;verticalAlign=middle;align=center;" vertex="1" parent="1">
          <mxGeometry x="890" y="360" width="160" height="40" as="geometry" />
        </mxCell>
        <mxCell id="rxG2Dj7wDqJCTIP3Ryzs-57" value="Name" style="text;strokeColor=none;fillColor=none;html=1;fontSize=24;fontStyle=1;verticalAlign=middle;align=center;" vertex="1" parent="1">
          <mxGeometry x="70" y="400" width="170" height="40" as="geometry" />
        </mxCell>
        <mxCell id="rxG2Dj7wDqJCTIP3Ryzs-58" value="Delete" style="text;strokeColor=none;fillColor=none;html=1;fontSize=24;fontStyle=1;verticalAlign=middle;align=center;" vertex="1" parent="1">
          <mxGeometry x="340" y="400" width="160" height="40" as="geometry" />
        </mxCell>
        <mxCell id="rxG2Dj7wDqJCTIP3Ryzs-59" value="Edit" style="text;strokeColor=none;fillColor=none;html=1;fontSize=24;fontStyle=1;verticalAlign=middle;align=center;" vertex="1" parent="1">
          <mxGeometry x="610" y="400" width="160" height="40" as="geometry" />
        </mxCell>
        <mxCell id="rxG2Dj7wDqJCTIP3Ryzs-60" value="View Counts" style="text;strokeColor=none;fillColor=none;html=1;fontSize=24;fontStyle=1;verticalAlign=middle;align=center;" vertex="1" parent="1">
          <mxGeometry x="890" y="400" width="160" height="40" as="geometry" />
        </mxCell>
        <mxCell id="rxG2Dj7wDqJCTIP3Ryzs-61" value="Name" style="text;strokeColor=none;fillColor=none;html=1;fontSize=24;fontStyle=1;verticalAlign=middle;align=center;" vertex="1" parent="1">
          <mxGeometry x="70" y="450" width="170" height="40" as="geometry" />
        </mxCell>
        <mxCell id="rxG2Dj7wDqJCTIP3Ryzs-62" value="Delete" style="text;strokeColor=none;fillColor=none;html=1;fontSize=24;fontStyle=1;verticalAlign=middle;align=center;" vertex="1" parent="1">
          <mxGeometry x="340" y="450" width="160" height="40" as="geometry" />
        </mxCell>
        <mxCell id="rxG2Dj7wDqJCTIP3Ryzs-63" value="Edit" style="text;strokeColor=none;fillColor=none;html=1;fontSize=24;fontStyle=1;verticalAlign=middle;align=center;" vertex="1" parent="1">
          <mxGeometry x="610" y="450" width="160" height="40" as="geometry" />
        </mxCell>
        <mxCell id="rxG2Dj7wDqJCTIP3Ryzs-64" value="View Counts" style="text;strokeColor=none;fillColor=none;html=1;fontSize=24;fontStyle=1;verticalAlign=middle;align=center;" vertex="1" parent="1">
          <mxGeometry x="890" y="450" width="160" height="40" as="geometry" />
        </mxCell>
        <mxCell id="rxG2Dj7wDqJCTIP3Ryzs-65" value="Name" style="text;strokeColor=none;fillColor=none;html=1;fontSize=24;fontStyle=1;verticalAlign=middle;align=center;" vertex="1" parent="1">
          <mxGeometry x="70" y="510" width="170" height="40" as="geometry" />
        </mxCell>
        <mxCell id="rxG2Dj7wDqJCTIP3Ryzs-66" value="Delete" style="text;strokeColor=none;fillColor=none;html=1;fontSize=24;fontStyle=1;verticalAlign=middle;align=center;" vertex="1" parent="1">
          <mxGeometry x="340" y="510" width="160" height="40" as="geometry" />
        </mxCell>
        <mxCell id="rxG2Dj7wDqJCTIP3Ryzs-67" value="Edit" style="text;strokeColor=none;fillColor=none;html=1;fontSize=24;fontStyle=1;verticalAlign=middle;align=center;" vertex="1" parent="1">
          <mxGeometry x="610" y="500" width="160" height="40" as="geometry" />
        </mxCell>
        <mxCell id="rxG2Dj7wDqJCTIP3Ryzs-68" value="View Counts" style="text;strokeColor=none;fillColor=none;html=1;fontSize=24;fontStyle=1;verticalAlign=middle;align=center;" vertex="1" parent="1">
          <mxGeometry x="890" y="500" width="160" height="40" as="geometry" />
        </mxCell>
        <mxCell id="rxG2Dj7wDqJCTIP3Ryzs-69" value="Name" style="text;strokeColor=none;fillColor=none;html=1;fontSize=24;fontStyle=1;verticalAlign=middle;align=center;" vertex="1" parent="1">
          <mxGeometry x="70" y="550" width="170" height="40" as="geometry" />
        </mxCell>
        <mxCell id="rxG2Dj7wDqJCTIP3Ryzs-70" value="Delete" style="text;strokeColor=none;fillColor=none;html=1;fontSize=24;fontStyle=1;verticalAlign=middle;align=center;" vertex="1" parent="1">
          <mxGeometry x="340" y="550" width="160" height="40" as="geometry" />
        </mxCell>
        <mxCell id="rxG2Dj7wDqJCTIP3Ryzs-71" value="Edit" style="text;strokeColor=none;fillColor=none;html=1;fontSize=24;fontStyle=1;verticalAlign=middle;align=center;" vertex="1" parent="1">
          <mxGeometry x="610" y="550" width="160" height="40" as="geometry" />
        </mxCell>
        <mxCell id="rxG2Dj7wDqJCTIP3Ryzs-72" value="View Counts" style="text;strokeColor=none;fillColor=none;html=1;fontSize=24;fontStyle=1;verticalAlign=middle;align=center;" vertex="1" parent="1">
          <mxGeometry x="890" y="550" width="160" height="40" as="geometry" />
        </mxCell>
        <mxCell id="rxG2Dj7wDqJCTIP3Ryzs-73" value="Name" style="text;strokeColor=none;fillColor=none;html=1;fontSize=24;fontStyle=1;verticalAlign=middle;align=center;" vertex="1" parent="1">
          <mxGeometry x="70" y="590" width="170" height="40" as="geometry" />
        </mxCell>
        <mxCell id="rxG2Dj7wDqJCTIP3Ryzs-74" value="Delete" style="text;strokeColor=none;fillColor=none;html=1;fontSize=24;fontStyle=1;verticalAlign=middle;align=center;" vertex="1" parent="1">
          <mxGeometry x="340" y="590" width="160" height="40" as="geometry" />
        </mxCell>
        <mxCell id="rxG2Dj7wDqJCTIP3Ryzs-75" value="Edit" style="text;strokeColor=none;fillColor=none;html=1;fontSize=24;fontStyle=1;verticalAlign=middle;align=center;" vertex="1" parent="1">
          <mxGeometry x="610" y="590" width="160" height="40" as="geometry" />
        </mxCell>
        <mxCell id="rxG2Dj7wDqJCTIP3Ryzs-76" value="View Counts" style="text;strokeColor=none;fillColor=none;html=1;fontSize=24;fontStyle=1;verticalAlign=middle;align=center;" vertex="1" parent="1">
          <mxGeometry x="890" y="600" width="160" height="40" as="geometry" />
        </mxCell>
        <mxCell id="rxG2Dj7wDqJCTIP3Ryzs-77" value="Name" style="text;strokeColor=none;fillColor=none;html=1;fontSize=24;fontStyle=1;verticalAlign=middle;align=center;" vertex="1" parent="1">
          <mxGeometry x="70" y="640" width="170" height="40" as="geometry" />
        </mxCell>
        <mxCell id="rxG2Dj7wDqJCTIP3Ryzs-78" value="Delete" style="text;strokeColor=none;fillColor=none;html=1;fontSize=24;fontStyle=1;verticalAlign=middle;align=center;" vertex="1" parent="1">
          <mxGeometry x="340" y="640" width="160" height="40" as="geometry" />
        </mxCell>
        <mxCell id="rxG2Dj7wDqJCTIP3Ryzs-79" value="Edit" style="text;strokeColor=none;fillColor=none;html=1;fontSize=24;fontStyle=1;verticalAlign=middle;align=center;" vertex="1" parent="1">
          <mxGeometry x="610" y="640" width="160" height="40" as="geometry" />
        </mxCell>
        <mxCell id="rxG2Dj7wDqJCTIP3Ryzs-80" value="View Counts" style="text;strokeColor=none;fillColor=none;html=1;fontSize=24;fontStyle=1;verticalAlign=middle;align=center;" vertex="1" parent="1">
          <mxGeometry x="890" y="640" width="160" height="40" as="geometry" />
        </mxCell>
        <mxCell id="rxG2Dj7wDqJCTIP3Ryzs-81" value="Name" style="text;strokeColor=none;fillColor=none;html=1;fontSize=24;fontStyle=1;verticalAlign=middle;align=center;" vertex="1" parent="1">
          <mxGeometry x="70" y="690" width="170" height="40" as="geometry" />
        </mxCell>
        <mxCell id="rxG2Dj7wDqJCTIP3Ryzs-82" value="Delete" style="text;strokeColor=none;fillColor=none;html=1;fontSize=24;fontStyle=1;verticalAlign=middle;align=center;" vertex="1" parent="1">
          <mxGeometry x="340" y="690" width="160" height="40" as="geometry" />
        </mxCell>
        <mxCell id="rxG2Dj7wDqJCTIP3Ryzs-83" value="Edit" style="text;strokeColor=none;fillColor=none;html=1;fontSize=24;fontStyle=1;verticalAlign=middle;align=center;" vertex="1" parent="1">
          <mxGeometry x="610" y="690" width="160" height="40" as="geometry" />
        </mxCell>
        <mxCell id="rxG2Dj7wDqJCTIP3Ryzs-84" value="View Counts" style="text;strokeColor=none;fillColor=none;html=1;fontSize=24;fontStyle=1;verticalAlign=middle;align=center;" vertex="1" parent="1">
          <mxGeometry x="890" y="690" width="160" height="40" as="geometry" />
        </mxCell>
        <mxCell id="rxG2Dj7wDqJCTIP3Ryzs-85" value="Name" style="text;strokeColor=none;fillColor=none;html=1;fontSize=24;fontStyle=1;verticalAlign=middle;align=center;" vertex="1" parent="1">
          <mxGeometry x="70" y="740" width="170" height="40" as="geometry" />
        </mxCell>
        <mxCell id="rxG2Dj7wDqJCTIP3Ryzs-86" value="Delete" style="text;strokeColor=none;fillColor=none;html=1;fontSize=24;fontStyle=1;verticalAlign=middle;align=center;" vertex="1" parent="1">
          <mxGeometry x="340" y="740" width="160" height="40" as="geometry" />
        </mxCell>
        <mxCell id="rxG2Dj7wDqJCTIP3Ryzs-87" value="Edit" style="text;strokeColor=none;fillColor=none;html=1;fontSize=24;fontStyle=1;verticalAlign=middle;align=center;" vertex="1" parent="1">
          <mxGeometry x="610" y="740" width="160" height="40" as="geometry" />
        </mxCell>
        <mxCell id="rxG2Dj7wDqJCTIP3Ryzs-88" value="View Counts" style="text;strokeColor=none;fillColor=none;html=1;fontSize=24;fontStyle=1;verticalAlign=middle;align=center;" vertex="1" parent="1">
          <mxGeometry x="890" y="730" width="160" height="40" as="geometry" />
        </mxCell>
      </root>
    </mxGraphModel>
  </diagram>
  <diagram name="Location List Page" id="whLZp2Eq7Ia0phoNDMZx">
    <mxGraphModel dx="1426" dy="751" grid="1" gridSize="10" guides="1" tooltips="1" connect="1" arrows="1" fold="1" page="1" pageScale="1" pageWidth="1169" pageHeight="827" math="0" shadow="0">
      <root>
        <mxCell id="9_jHUoVymvyzzHVGm6bo-0" />
        <mxCell id="9_jHUoVymvyzzHVGm6bo-1" parent="9_jHUoVymvyzzHVGm6bo-0" />
        <mxCell id="9_jHUoVymvyzzHVGm6bo-2" value="" style="rounded=0;whiteSpace=wrap;html=1;" vertex="1" parent="9_jHUoVymvyzzHVGm6bo-1">
          <mxGeometry x="10" y="10" width="1150" height="70" as="geometry" />
        </mxCell>
        <mxCell id="9_jHUoVymvyzzHVGm6bo-3" value="" style="shape=table;startSize=0;container=1;collapsible=0;childLayout=tableLayout;fontSize=16;swimlaneLine=1;" vertex="1" parent="9_jHUoVymvyzzHVGm6bo-1">
          <mxGeometry x="20" y="160" width="1080" height="620" as="geometry" />
        </mxCell>
        <mxCell id="9_jHUoVymvyzzHVGm6bo-4" value="" style="shape=tableRow;horizontal=0;startSize=0;swimlaneHead=0;swimlaneBody=0;strokeColor=inherit;top=0;left=0;bottom=0;right=0;collapsible=0;dropTarget=0;fillColor=none;points=[[0,0.5],[1,0.5]];portConstraint=eastwest;fontSize=16;" vertex="1" parent="9_jHUoVymvyzzHVGm6bo-3">
          <mxGeometry width="1080" height="48" as="geometry" />
        </mxCell>
        <mxCell id="9_jHUoVymvyzzHVGm6bo-5" value="" style="shape=partialRectangle;html=1;whiteSpace=wrap;connectable=0;strokeColor=inherit;overflow=hidden;fillColor=none;top=0;left=0;bottom=0;right=0;pointerEvents=1;fontSize=16;" vertex="1" parent="9_jHUoVymvyzzHVGm6bo-4">
          <mxGeometry width="270" height="48" as="geometry">
            <mxRectangle width="270" height="48" as="alternateBounds" />
          </mxGeometry>
        </mxCell>
        <mxCell id="9_jHUoVymvyzzHVGm6bo-6" value="" style="shape=partialRectangle;html=1;whiteSpace=wrap;connectable=0;strokeColor=inherit;overflow=hidden;fillColor=none;top=0;left=0;bottom=0;right=0;pointerEvents=1;fontSize=16;" vertex="1" parent="9_jHUoVymvyzzHVGm6bo-4">
          <mxGeometry x="270" width="271" height="48" as="geometry">
            <mxRectangle width="271" height="48" as="alternateBounds" />
          </mxGeometry>
        </mxCell>
        <mxCell id="9_jHUoVymvyzzHVGm6bo-7" value="" style="shape=partialRectangle;html=1;whiteSpace=wrap;connectable=0;strokeColor=inherit;overflow=hidden;fillColor=none;top=0;left=0;bottom=0;right=0;pointerEvents=1;fontSize=16;" vertex="1" parent="9_jHUoVymvyzzHVGm6bo-4">
          <mxGeometry x="541" width="269" height="48" as="geometry">
            <mxRectangle width="269" height="48" as="alternateBounds" />
          </mxGeometry>
        </mxCell>
        <mxCell id="9_jHUoVymvyzzHVGm6bo-8" style="shape=partialRectangle;html=1;whiteSpace=wrap;connectable=0;strokeColor=inherit;overflow=hidden;fillColor=none;top=0;left=0;bottom=0;right=0;pointerEvents=1;fontSize=16;" vertex="1" parent="9_jHUoVymvyzzHVGm6bo-4">
          <mxGeometry x="810" width="270" height="48" as="geometry">
            <mxRectangle width="270" height="48" as="alternateBounds" />
          </mxGeometry>
        </mxCell>
        <mxCell id="9_jHUoVymvyzzHVGm6bo-9" value="" style="shape=tableRow;horizontal=0;startSize=0;swimlaneHead=0;swimlaneBody=0;strokeColor=inherit;top=0;left=0;bottom=0;right=0;collapsible=0;dropTarget=0;fillColor=none;points=[[0,0.5],[1,0.5]];portConstraint=eastwest;fontSize=16;" vertex="1" parent="9_jHUoVymvyzzHVGm6bo-3">
          <mxGeometry y="48" width="1080" height="45" as="geometry" />
        </mxCell>
        <mxCell id="9_jHUoVymvyzzHVGm6bo-10" value="" style="shape=partialRectangle;html=1;whiteSpace=wrap;connectable=0;strokeColor=inherit;overflow=hidden;fillColor=none;top=0;left=0;bottom=0;right=0;pointerEvents=1;fontSize=16;" vertex="1" parent="9_jHUoVymvyzzHVGm6bo-9">
          <mxGeometry width="270" height="45" as="geometry">
            <mxRectangle width="270" height="45" as="alternateBounds" />
          </mxGeometry>
        </mxCell>
        <mxCell id="9_jHUoVymvyzzHVGm6bo-11" value="" style="shape=partialRectangle;html=1;whiteSpace=wrap;connectable=0;strokeColor=inherit;overflow=hidden;fillColor=none;top=0;left=0;bottom=0;right=0;pointerEvents=1;fontSize=16;" vertex="1" parent="9_jHUoVymvyzzHVGm6bo-9">
          <mxGeometry x="270" width="271" height="45" as="geometry">
            <mxRectangle width="271" height="45" as="alternateBounds" />
          </mxGeometry>
        </mxCell>
        <mxCell id="9_jHUoVymvyzzHVGm6bo-12" value="" style="shape=partialRectangle;html=1;whiteSpace=wrap;connectable=0;strokeColor=inherit;overflow=hidden;fillColor=none;top=0;left=0;bottom=0;right=0;pointerEvents=1;fontSize=16;" vertex="1" parent="9_jHUoVymvyzzHVGm6bo-9">
          <mxGeometry x="541" width="269" height="45" as="geometry">
            <mxRectangle width="269" height="45" as="alternateBounds" />
          </mxGeometry>
        </mxCell>
        <mxCell id="9_jHUoVymvyzzHVGm6bo-13" style="shape=partialRectangle;html=1;whiteSpace=wrap;connectable=0;strokeColor=inherit;overflow=hidden;fillColor=none;top=0;left=0;bottom=0;right=0;pointerEvents=1;fontSize=16;" vertex="1" parent="9_jHUoVymvyzzHVGm6bo-9">
          <mxGeometry x="810" width="270" height="45" as="geometry">
            <mxRectangle width="270" height="45" as="alternateBounds" />
          </mxGeometry>
        </mxCell>
        <mxCell id="9_jHUoVymvyzzHVGm6bo-14" value="" style="shape=tableRow;horizontal=0;startSize=0;swimlaneHead=0;swimlaneBody=0;strokeColor=inherit;top=0;left=0;bottom=0;right=0;collapsible=0;dropTarget=0;fillColor=none;points=[[0,0.5],[1,0.5]];portConstraint=eastwest;fontSize=16;" vertex="1" parent="9_jHUoVymvyzzHVGm6bo-3">
          <mxGeometry y="93" width="1080" height="48" as="geometry" />
        </mxCell>
        <mxCell id="9_jHUoVymvyzzHVGm6bo-15" value="" style="shape=partialRectangle;html=1;whiteSpace=wrap;connectable=0;strokeColor=inherit;overflow=hidden;fillColor=none;top=0;left=0;bottom=0;right=0;pointerEvents=1;fontSize=16;" vertex="1" parent="9_jHUoVymvyzzHVGm6bo-14">
          <mxGeometry width="270" height="48" as="geometry">
            <mxRectangle width="270" height="48" as="alternateBounds" />
          </mxGeometry>
        </mxCell>
        <mxCell id="9_jHUoVymvyzzHVGm6bo-16" value="" style="shape=partialRectangle;html=1;whiteSpace=wrap;connectable=0;strokeColor=inherit;overflow=hidden;fillColor=none;top=0;left=0;bottom=0;right=0;pointerEvents=1;fontSize=16;" vertex="1" parent="9_jHUoVymvyzzHVGm6bo-14">
          <mxGeometry x="270" width="271" height="48" as="geometry">
            <mxRectangle width="271" height="48" as="alternateBounds" />
          </mxGeometry>
        </mxCell>
        <mxCell id="9_jHUoVymvyzzHVGm6bo-17" value="" style="shape=partialRectangle;html=1;whiteSpace=wrap;connectable=0;strokeColor=inherit;overflow=hidden;fillColor=none;top=0;left=0;bottom=0;right=0;pointerEvents=1;fontSize=16;" vertex="1" parent="9_jHUoVymvyzzHVGm6bo-14">
          <mxGeometry x="541" width="269" height="48" as="geometry">
            <mxRectangle width="269" height="48" as="alternateBounds" />
          </mxGeometry>
        </mxCell>
        <mxCell id="9_jHUoVymvyzzHVGm6bo-18" style="shape=partialRectangle;html=1;whiteSpace=wrap;connectable=0;strokeColor=inherit;overflow=hidden;fillColor=none;top=0;left=0;bottom=0;right=0;pointerEvents=1;fontSize=16;" vertex="1" parent="9_jHUoVymvyzzHVGm6bo-14">
          <mxGeometry x="810" width="270" height="48" as="geometry">
            <mxRectangle width="270" height="48" as="alternateBounds" />
          </mxGeometry>
        </mxCell>
        <mxCell id="9_jHUoVymvyzzHVGm6bo-19" style="shape=tableRow;horizontal=0;startSize=0;swimlaneHead=0;swimlaneBody=0;strokeColor=inherit;top=0;left=0;bottom=0;right=0;collapsible=0;dropTarget=0;fillColor=none;points=[[0,0.5],[1,0.5]];portConstraint=eastwest;fontSize=16;" vertex="1" parent="9_jHUoVymvyzzHVGm6bo-3">
          <mxGeometry y="141" width="1080" height="48" as="geometry" />
        </mxCell>
        <mxCell id="9_jHUoVymvyzzHVGm6bo-20" style="shape=partialRectangle;html=1;whiteSpace=wrap;connectable=0;strokeColor=inherit;overflow=hidden;fillColor=none;top=0;left=0;bottom=0;right=0;pointerEvents=1;fontSize=16;" vertex="1" parent="9_jHUoVymvyzzHVGm6bo-19">
          <mxGeometry width="270" height="48" as="geometry">
            <mxRectangle width="270" height="48" as="alternateBounds" />
          </mxGeometry>
        </mxCell>
        <mxCell id="9_jHUoVymvyzzHVGm6bo-21" style="shape=partialRectangle;html=1;whiteSpace=wrap;connectable=0;strokeColor=inherit;overflow=hidden;fillColor=none;top=0;left=0;bottom=0;right=0;pointerEvents=1;fontSize=16;" vertex="1" parent="9_jHUoVymvyzzHVGm6bo-19">
          <mxGeometry x="270" width="271" height="48" as="geometry">
            <mxRectangle width="271" height="48" as="alternateBounds" />
          </mxGeometry>
        </mxCell>
        <mxCell id="9_jHUoVymvyzzHVGm6bo-22" style="shape=partialRectangle;html=1;whiteSpace=wrap;connectable=0;strokeColor=inherit;overflow=hidden;fillColor=none;top=0;left=0;bottom=0;right=0;pointerEvents=1;fontSize=16;" vertex="1" parent="9_jHUoVymvyzzHVGm6bo-19">
          <mxGeometry x="541" width="269" height="48" as="geometry">
            <mxRectangle width="269" height="48" as="alternateBounds" />
          </mxGeometry>
        </mxCell>
        <mxCell id="9_jHUoVymvyzzHVGm6bo-23" style="shape=partialRectangle;html=1;whiteSpace=wrap;connectable=0;strokeColor=inherit;overflow=hidden;fillColor=none;top=0;left=0;bottom=0;right=0;pointerEvents=1;fontSize=16;" vertex="1" parent="9_jHUoVymvyzzHVGm6bo-19">
          <mxGeometry x="810" width="270" height="48" as="geometry">
            <mxRectangle width="270" height="48" as="alternateBounds" />
          </mxGeometry>
        </mxCell>
        <mxCell id="9_jHUoVymvyzzHVGm6bo-24" style="shape=tableRow;horizontal=0;startSize=0;swimlaneHead=0;swimlaneBody=0;strokeColor=inherit;top=0;left=0;bottom=0;right=0;collapsible=0;dropTarget=0;fillColor=none;points=[[0,0.5],[1,0.5]];portConstraint=eastwest;fontSize=16;" vertex="1" parent="9_jHUoVymvyzzHVGm6bo-3">
          <mxGeometry y="189" width="1080" height="48" as="geometry" />
        </mxCell>
        <mxCell id="9_jHUoVymvyzzHVGm6bo-25" style="shape=partialRectangle;html=1;whiteSpace=wrap;connectable=0;strokeColor=inherit;overflow=hidden;fillColor=none;top=0;left=0;bottom=0;right=0;pointerEvents=1;fontSize=16;" vertex="1" parent="9_jHUoVymvyzzHVGm6bo-24">
          <mxGeometry width="270" height="48" as="geometry">
            <mxRectangle width="270" height="48" as="alternateBounds" />
          </mxGeometry>
        </mxCell>
        <mxCell id="9_jHUoVymvyzzHVGm6bo-26" style="shape=partialRectangle;html=1;whiteSpace=wrap;connectable=0;strokeColor=inherit;overflow=hidden;fillColor=none;top=0;left=0;bottom=0;right=0;pointerEvents=1;fontSize=16;" vertex="1" parent="9_jHUoVymvyzzHVGm6bo-24">
          <mxGeometry x="270" width="271" height="48" as="geometry">
            <mxRectangle width="271" height="48" as="alternateBounds" />
          </mxGeometry>
        </mxCell>
        <mxCell id="9_jHUoVymvyzzHVGm6bo-27" style="shape=partialRectangle;html=1;whiteSpace=wrap;connectable=0;strokeColor=inherit;overflow=hidden;fillColor=none;top=0;left=0;bottom=0;right=0;pointerEvents=1;fontSize=16;" vertex="1" parent="9_jHUoVymvyzzHVGm6bo-24">
          <mxGeometry x="541" width="269" height="48" as="geometry">
            <mxRectangle width="269" height="48" as="alternateBounds" />
          </mxGeometry>
        </mxCell>
        <mxCell id="9_jHUoVymvyzzHVGm6bo-28" style="shape=partialRectangle;html=1;whiteSpace=wrap;connectable=0;strokeColor=inherit;overflow=hidden;fillColor=none;top=0;left=0;bottom=0;right=0;pointerEvents=1;fontSize=16;" vertex="1" parent="9_jHUoVymvyzzHVGm6bo-24">
          <mxGeometry x="810" width="270" height="48" as="geometry">
            <mxRectangle width="270" height="48" as="alternateBounds" />
          </mxGeometry>
        </mxCell>
        <mxCell id="9_jHUoVymvyzzHVGm6bo-29" style="shape=tableRow;horizontal=0;startSize=0;swimlaneHead=0;swimlaneBody=0;strokeColor=inherit;top=0;left=0;bottom=0;right=0;collapsible=0;dropTarget=0;fillColor=none;points=[[0,0.5],[1,0.5]];portConstraint=eastwest;fontSize=16;" vertex="1" parent="9_jHUoVymvyzzHVGm6bo-3">
          <mxGeometry y="237" width="1080" height="47" as="geometry" />
        </mxCell>
        <mxCell id="9_jHUoVymvyzzHVGm6bo-30" style="shape=partialRectangle;html=1;whiteSpace=wrap;connectable=0;strokeColor=inherit;overflow=hidden;fillColor=none;top=0;left=0;bottom=0;right=0;pointerEvents=1;fontSize=16;" vertex="1" parent="9_jHUoVymvyzzHVGm6bo-29">
          <mxGeometry width="270" height="47" as="geometry">
            <mxRectangle width="270" height="47" as="alternateBounds" />
          </mxGeometry>
        </mxCell>
        <mxCell id="9_jHUoVymvyzzHVGm6bo-31" style="shape=partialRectangle;html=1;whiteSpace=wrap;connectable=0;strokeColor=inherit;overflow=hidden;fillColor=none;top=0;left=0;bottom=0;right=0;pointerEvents=1;fontSize=16;" vertex="1" parent="9_jHUoVymvyzzHVGm6bo-29">
          <mxGeometry x="270" width="271" height="47" as="geometry">
            <mxRectangle width="271" height="47" as="alternateBounds" />
          </mxGeometry>
        </mxCell>
        <mxCell id="9_jHUoVymvyzzHVGm6bo-32" style="shape=partialRectangle;html=1;whiteSpace=wrap;connectable=0;strokeColor=inherit;overflow=hidden;fillColor=none;top=0;left=0;bottom=0;right=0;pointerEvents=1;fontSize=16;" vertex="1" parent="9_jHUoVymvyzzHVGm6bo-29">
          <mxGeometry x="541" width="269" height="47" as="geometry">
            <mxRectangle width="269" height="47" as="alternateBounds" />
          </mxGeometry>
        </mxCell>
        <mxCell id="9_jHUoVymvyzzHVGm6bo-33" style="shape=partialRectangle;html=1;whiteSpace=wrap;connectable=0;strokeColor=inherit;overflow=hidden;fillColor=none;top=0;left=0;bottom=0;right=0;pointerEvents=1;fontSize=16;" vertex="1" parent="9_jHUoVymvyzzHVGm6bo-29">
          <mxGeometry x="810" width="270" height="47" as="geometry">
            <mxRectangle width="270" height="47" as="alternateBounds" />
          </mxGeometry>
        </mxCell>
        <mxCell id="9_jHUoVymvyzzHVGm6bo-34" style="shape=tableRow;horizontal=0;startSize=0;swimlaneHead=0;swimlaneBody=0;strokeColor=inherit;top=0;left=0;bottom=0;right=0;collapsible=0;dropTarget=0;fillColor=none;points=[[0,0.5],[1,0.5]];portConstraint=eastwest;fontSize=16;" vertex="1" parent="9_jHUoVymvyzzHVGm6bo-3">
          <mxGeometry y="284" width="1080" height="49" as="geometry" />
        </mxCell>
        <mxCell id="9_jHUoVymvyzzHVGm6bo-35" style="shape=partialRectangle;html=1;whiteSpace=wrap;connectable=0;strokeColor=inherit;overflow=hidden;fillColor=none;top=0;left=0;bottom=0;right=0;pointerEvents=1;fontSize=16;" vertex="1" parent="9_jHUoVymvyzzHVGm6bo-34">
          <mxGeometry width="270" height="49" as="geometry">
            <mxRectangle width="270" height="49" as="alternateBounds" />
          </mxGeometry>
        </mxCell>
        <mxCell id="9_jHUoVymvyzzHVGm6bo-36" style="shape=partialRectangle;html=1;whiteSpace=wrap;connectable=0;strokeColor=inherit;overflow=hidden;fillColor=none;top=0;left=0;bottom=0;right=0;pointerEvents=1;fontSize=16;" vertex="1" parent="9_jHUoVymvyzzHVGm6bo-34">
          <mxGeometry x="270" width="271" height="49" as="geometry">
            <mxRectangle width="271" height="49" as="alternateBounds" />
          </mxGeometry>
        </mxCell>
        <mxCell id="9_jHUoVymvyzzHVGm6bo-37" style="shape=partialRectangle;html=1;whiteSpace=wrap;connectable=0;strokeColor=inherit;overflow=hidden;fillColor=none;top=0;left=0;bottom=0;right=0;pointerEvents=1;fontSize=16;" vertex="1" parent="9_jHUoVymvyzzHVGm6bo-34">
          <mxGeometry x="541" width="269" height="49" as="geometry">
            <mxRectangle width="269" height="49" as="alternateBounds" />
          </mxGeometry>
        </mxCell>
        <mxCell id="9_jHUoVymvyzzHVGm6bo-38" style="shape=partialRectangle;html=1;whiteSpace=wrap;connectable=0;strokeColor=inherit;overflow=hidden;fillColor=none;top=0;left=0;bottom=0;right=0;pointerEvents=1;fontSize=16;" vertex="1" parent="9_jHUoVymvyzzHVGm6bo-34">
          <mxGeometry x="810" width="270" height="49" as="geometry">
            <mxRectangle width="270" height="49" as="alternateBounds" />
          </mxGeometry>
        </mxCell>
        <mxCell id="9_jHUoVymvyzzHVGm6bo-39" style="shape=tableRow;horizontal=0;startSize=0;swimlaneHead=0;swimlaneBody=0;strokeColor=inherit;top=0;left=0;bottom=0;right=0;collapsible=0;dropTarget=0;fillColor=none;points=[[0,0.5],[1,0.5]];portConstraint=eastwest;fontSize=16;" vertex="1" parent="9_jHUoVymvyzzHVGm6bo-3">
          <mxGeometry y="333" width="1080" height="47" as="geometry" />
        </mxCell>
        <mxCell id="9_jHUoVymvyzzHVGm6bo-40" style="shape=partialRectangle;html=1;whiteSpace=wrap;connectable=0;strokeColor=inherit;overflow=hidden;fillColor=none;top=0;left=0;bottom=0;right=0;pointerEvents=1;fontSize=16;" vertex="1" parent="9_jHUoVymvyzzHVGm6bo-39">
          <mxGeometry width="270" height="47" as="geometry">
            <mxRectangle width="270" height="47" as="alternateBounds" />
          </mxGeometry>
        </mxCell>
        <mxCell id="9_jHUoVymvyzzHVGm6bo-41" style="shape=partialRectangle;html=1;whiteSpace=wrap;connectable=0;strokeColor=inherit;overflow=hidden;fillColor=none;top=0;left=0;bottom=0;right=0;pointerEvents=1;fontSize=16;" vertex="1" parent="9_jHUoVymvyzzHVGm6bo-39">
          <mxGeometry x="270" width="271" height="47" as="geometry">
            <mxRectangle width="271" height="47" as="alternateBounds" />
          </mxGeometry>
        </mxCell>
        <mxCell id="9_jHUoVymvyzzHVGm6bo-42" style="shape=partialRectangle;html=1;whiteSpace=wrap;connectable=0;strokeColor=inherit;overflow=hidden;fillColor=none;top=0;left=0;bottom=0;right=0;pointerEvents=1;fontSize=16;" vertex="1" parent="9_jHUoVymvyzzHVGm6bo-39">
          <mxGeometry x="541" width="269" height="47" as="geometry">
            <mxRectangle width="269" height="47" as="alternateBounds" />
          </mxGeometry>
        </mxCell>
        <mxCell id="9_jHUoVymvyzzHVGm6bo-43" style="shape=partialRectangle;html=1;whiteSpace=wrap;connectable=0;strokeColor=inherit;overflow=hidden;fillColor=none;top=0;left=0;bottom=0;right=0;pointerEvents=1;fontSize=16;" vertex="1" parent="9_jHUoVymvyzzHVGm6bo-39">
          <mxGeometry x="810" width="270" height="47" as="geometry">
            <mxRectangle width="270" height="47" as="alternateBounds" />
          </mxGeometry>
        </mxCell>
        <mxCell id="9_jHUoVymvyzzHVGm6bo-44" style="shape=tableRow;horizontal=0;startSize=0;swimlaneHead=0;swimlaneBody=0;strokeColor=inherit;top=0;left=0;bottom=0;right=0;collapsible=0;dropTarget=0;fillColor=none;points=[[0,0.5],[1,0.5]];portConstraint=eastwest;fontSize=16;" vertex="1" parent="9_jHUoVymvyzzHVGm6bo-3">
          <mxGeometry y="380" width="1080" height="49" as="geometry" />
        </mxCell>
        <mxCell id="9_jHUoVymvyzzHVGm6bo-45" style="shape=partialRectangle;html=1;whiteSpace=wrap;connectable=0;strokeColor=inherit;overflow=hidden;fillColor=none;top=0;left=0;bottom=0;right=0;pointerEvents=1;fontSize=16;" vertex="1" parent="9_jHUoVymvyzzHVGm6bo-44">
          <mxGeometry width="270" height="49" as="geometry">
            <mxRectangle width="270" height="49" as="alternateBounds" />
          </mxGeometry>
        </mxCell>
        <mxCell id="9_jHUoVymvyzzHVGm6bo-46" style="shape=partialRectangle;html=1;whiteSpace=wrap;connectable=0;strokeColor=inherit;overflow=hidden;fillColor=none;top=0;left=0;bottom=0;right=0;pointerEvents=1;fontSize=16;" vertex="1" parent="9_jHUoVymvyzzHVGm6bo-44">
          <mxGeometry x="270" width="271" height="49" as="geometry">
            <mxRectangle width="271" height="49" as="alternateBounds" />
          </mxGeometry>
        </mxCell>
        <mxCell id="9_jHUoVymvyzzHVGm6bo-47" style="shape=partialRectangle;html=1;whiteSpace=wrap;connectable=0;strokeColor=inherit;overflow=hidden;fillColor=none;top=0;left=0;bottom=0;right=0;pointerEvents=1;fontSize=16;" vertex="1" parent="9_jHUoVymvyzzHVGm6bo-44">
          <mxGeometry x="541" width="269" height="49" as="geometry">
            <mxRectangle width="269" height="49" as="alternateBounds" />
          </mxGeometry>
        </mxCell>
        <mxCell id="9_jHUoVymvyzzHVGm6bo-48" style="shape=partialRectangle;html=1;whiteSpace=wrap;connectable=0;strokeColor=inherit;overflow=hidden;fillColor=none;top=0;left=0;bottom=0;right=0;pointerEvents=1;fontSize=16;" vertex="1" parent="9_jHUoVymvyzzHVGm6bo-44">
          <mxGeometry x="810" width="270" height="49" as="geometry">
            <mxRectangle width="270" height="49" as="alternateBounds" />
          </mxGeometry>
        </mxCell>
        <mxCell id="9_jHUoVymvyzzHVGm6bo-49" style="shape=tableRow;horizontal=0;startSize=0;swimlaneHead=0;swimlaneBody=0;strokeColor=inherit;top=0;left=0;bottom=0;right=0;collapsible=0;dropTarget=0;fillColor=none;points=[[0,0.5],[1,0.5]];portConstraint=eastwest;fontSize=16;" vertex="1" parent="9_jHUoVymvyzzHVGm6bo-3">
          <mxGeometry y="429" width="1080" height="47" as="geometry" />
        </mxCell>
        <mxCell id="9_jHUoVymvyzzHVGm6bo-50" style="shape=partialRectangle;html=1;whiteSpace=wrap;connectable=0;strokeColor=inherit;overflow=hidden;fillColor=none;top=0;left=0;bottom=0;right=0;pointerEvents=1;fontSize=16;" vertex="1" parent="9_jHUoVymvyzzHVGm6bo-49">
          <mxGeometry width="270" height="47" as="geometry">
            <mxRectangle width="270" height="47" as="alternateBounds" />
          </mxGeometry>
        </mxCell>
        <mxCell id="9_jHUoVymvyzzHVGm6bo-51" style="shape=partialRectangle;html=1;whiteSpace=wrap;connectable=0;strokeColor=inherit;overflow=hidden;fillColor=none;top=0;left=0;bottom=0;right=0;pointerEvents=1;fontSize=16;" vertex="1" parent="9_jHUoVymvyzzHVGm6bo-49">
          <mxGeometry x="270" width="271" height="47" as="geometry">
            <mxRectangle width="271" height="47" as="alternateBounds" />
          </mxGeometry>
        </mxCell>
        <mxCell id="9_jHUoVymvyzzHVGm6bo-52" style="shape=partialRectangle;html=1;whiteSpace=wrap;connectable=0;strokeColor=inherit;overflow=hidden;fillColor=none;top=0;left=0;bottom=0;right=0;pointerEvents=1;fontSize=16;" vertex="1" parent="9_jHUoVymvyzzHVGm6bo-49">
          <mxGeometry x="541" width="269" height="47" as="geometry">
            <mxRectangle width="269" height="47" as="alternateBounds" />
          </mxGeometry>
        </mxCell>
        <mxCell id="9_jHUoVymvyzzHVGm6bo-53" style="shape=partialRectangle;html=1;whiteSpace=wrap;connectable=0;strokeColor=inherit;overflow=hidden;fillColor=none;top=0;left=0;bottom=0;right=0;pointerEvents=1;fontSize=16;" vertex="1" parent="9_jHUoVymvyzzHVGm6bo-49">
          <mxGeometry x="810" width="270" height="47" as="geometry">
            <mxRectangle width="270" height="47" as="alternateBounds" />
          </mxGeometry>
        </mxCell>
        <mxCell id="9_jHUoVymvyzzHVGm6bo-54" style="shape=tableRow;horizontal=0;startSize=0;swimlaneHead=0;swimlaneBody=0;strokeColor=inherit;top=0;left=0;bottom=0;right=0;collapsible=0;dropTarget=0;fillColor=none;points=[[0,0.5],[1,0.5]];portConstraint=eastwest;fontSize=16;" vertex="1" parent="9_jHUoVymvyzzHVGm6bo-3">
          <mxGeometry y="476" width="1080" height="48" as="geometry" />
        </mxCell>
        <mxCell id="9_jHUoVymvyzzHVGm6bo-55" style="shape=partialRectangle;html=1;whiteSpace=wrap;connectable=0;strokeColor=inherit;overflow=hidden;fillColor=none;top=0;left=0;bottom=0;right=0;pointerEvents=1;fontSize=16;" vertex="1" parent="9_jHUoVymvyzzHVGm6bo-54">
          <mxGeometry width="270" height="48" as="geometry">
            <mxRectangle width="270" height="48" as="alternateBounds" />
          </mxGeometry>
        </mxCell>
        <mxCell id="9_jHUoVymvyzzHVGm6bo-56" style="shape=partialRectangle;html=1;whiteSpace=wrap;connectable=0;strokeColor=inherit;overflow=hidden;fillColor=none;top=0;left=0;bottom=0;right=0;pointerEvents=1;fontSize=16;" vertex="1" parent="9_jHUoVymvyzzHVGm6bo-54">
          <mxGeometry x="270" width="271" height="48" as="geometry">
            <mxRectangle width="271" height="48" as="alternateBounds" />
          </mxGeometry>
        </mxCell>
        <mxCell id="9_jHUoVymvyzzHVGm6bo-57" style="shape=partialRectangle;html=1;whiteSpace=wrap;connectable=0;strokeColor=inherit;overflow=hidden;fillColor=none;top=0;left=0;bottom=0;right=0;pointerEvents=1;fontSize=16;" vertex="1" parent="9_jHUoVymvyzzHVGm6bo-54">
          <mxGeometry x="541" width="269" height="48" as="geometry">
            <mxRectangle width="269" height="48" as="alternateBounds" />
          </mxGeometry>
        </mxCell>
        <mxCell id="9_jHUoVymvyzzHVGm6bo-58" style="shape=partialRectangle;html=1;whiteSpace=wrap;connectable=0;strokeColor=inherit;overflow=hidden;fillColor=none;top=0;left=0;bottom=0;right=0;pointerEvents=1;fontSize=16;" vertex="1" parent="9_jHUoVymvyzzHVGm6bo-54">
          <mxGeometry x="810" width="270" height="48" as="geometry">
            <mxRectangle width="270" height="48" as="alternateBounds" />
          </mxGeometry>
        </mxCell>
        <mxCell id="9_jHUoVymvyzzHVGm6bo-59" style="shape=tableRow;horizontal=0;startSize=0;swimlaneHead=0;swimlaneBody=0;strokeColor=inherit;top=0;left=0;bottom=0;right=0;collapsible=0;dropTarget=0;fillColor=none;points=[[0,0.5],[1,0.5]];portConstraint=eastwest;fontSize=16;" vertex="1" parent="9_jHUoVymvyzzHVGm6bo-3">
          <mxGeometry y="524" width="1080" height="48" as="geometry" />
        </mxCell>
        <mxCell id="9_jHUoVymvyzzHVGm6bo-60" style="shape=partialRectangle;html=1;whiteSpace=wrap;connectable=0;strokeColor=inherit;overflow=hidden;fillColor=none;top=0;left=0;bottom=0;right=0;pointerEvents=1;fontSize=16;" vertex="1" parent="9_jHUoVymvyzzHVGm6bo-59">
          <mxGeometry width="270" height="48" as="geometry">
            <mxRectangle width="270" height="48" as="alternateBounds" />
          </mxGeometry>
        </mxCell>
        <mxCell id="9_jHUoVymvyzzHVGm6bo-61" style="shape=partialRectangle;html=1;whiteSpace=wrap;connectable=0;strokeColor=inherit;overflow=hidden;fillColor=none;top=0;left=0;bottom=0;right=0;pointerEvents=1;fontSize=16;" vertex="1" parent="9_jHUoVymvyzzHVGm6bo-59">
          <mxGeometry x="270" width="271" height="48" as="geometry">
            <mxRectangle width="271" height="48" as="alternateBounds" />
          </mxGeometry>
        </mxCell>
        <mxCell id="9_jHUoVymvyzzHVGm6bo-62" style="shape=partialRectangle;html=1;whiteSpace=wrap;connectable=0;strokeColor=inherit;overflow=hidden;fillColor=none;top=0;left=0;bottom=0;right=0;pointerEvents=1;fontSize=16;" vertex="1" parent="9_jHUoVymvyzzHVGm6bo-59">
          <mxGeometry x="541" width="269" height="48" as="geometry">
            <mxRectangle width="269" height="48" as="alternateBounds" />
          </mxGeometry>
        </mxCell>
        <mxCell id="9_jHUoVymvyzzHVGm6bo-63" style="shape=partialRectangle;html=1;whiteSpace=wrap;connectable=0;strokeColor=inherit;overflow=hidden;fillColor=none;top=0;left=0;bottom=0;right=0;pointerEvents=1;fontSize=16;" vertex="1" parent="9_jHUoVymvyzzHVGm6bo-59">
          <mxGeometry x="810" width="270" height="48" as="geometry">
            <mxRectangle width="270" height="48" as="alternateBounds" />
          </mxGeometry>
        </mxCell>
        <mxCell id="9_jHUoVymvyzzHVGm6bo-64" style="shape=tableRow;horizontal=0;startSize=0;swimlaneHead=0;swimlaneBody=0;strokeColor=inherit;top=0;left=0;bottom=0;right=0;collapsible=0;dropTarget=0;fillColor=none;points=[[0,0.5],[1,0.5]];portConstraint=eastwest;fontSize=16;" vertex="1" parent="9_jHUoVymvyzzHVGm6bo-3">
          <mxGeometry y="572" width="1080" height="48" as="geometry" />
        </mxCell>
        <mxCell id="9_jHUoVymvyzzHVGm6bo-65" style="shape=partialRectangle;html=1;whiteSpace=wrap;connectable=0;strokeColor=inherit;overflow=hidden;fillColor=none;top=0;left=0;bottom=0;right=0;pointerEvents=1;fontSize=16;" vertex="1" parent="9_jHUoVymvyzzHVGm6bo-64">
          <mxGeometry width="270" height="48" as="geometry">
            <mxRectangle width="270" height="48" as="alternateBounds" />
          </mxGeometry>
        </mxCell>
        <mxCell id="9_jHUoVymvyzzHVGm6bo-66" style="shape=partialRectangle;html=1;whiteSpace=wrap;connectable=0;strokeColor=inherit;overflow=hidden;fillColor=none;top=0;left=0;bottom=0;right=0;pointerEvents=1;fontSize=16;" vertex="1" parent="9_jHUoVymvyzzHVGm6bo-64">
          <mxGeometry x="270" width="271" height="48" as="geometry">
            <mxRectangle width="271" height="48" as="alternateBounds" />
          </mxGeometry>
        </mxCell>
        <mxCell id="9_jHUoVymvyzzHVGm6bo-67" style="shape=partialRectangle;html=1;whiteSpace=wrap;connectable=0;strokeColor=inherit;overflow=hidden;fillColor=none;top=0;left=0;bottom=0;right=0;pointerEvents=1;fontSize=16;" vertex="1" parent="9_jHUoVymvyzzHVGm6bo-64">
          <mxGeometry x="541" width="269" height="48" as="geometry">
            <mxRectangle width="269" height="48" as="alternateBounds" />
          </mxGeometry>
        </mxCell>
        <mxCell id="9_jHUoVymvyzzHVGm6bo-68" style="shape=partialRectangle;html=1;whiteSpace=wrap;connectable=0;strokeColor=inherit;overflow=hidden;fillColor=none;top=0;left=0;bottom=0;right=0;pointerEvents=1;fontSize=16;" vertex="1" parent="9_jHUoVymvyzzHVGm6bo-64">
          <mxGeometry x="810" width="270" height="48" as="geometry">
            <mxRectangle width="270" height="48" as="alternateBounds" />
          </mxGeometry>
        </mxCell>
        <mxCell id="9_jHUoVymvyzzHVGm6bo-69" value="Name" style="text;strokeColor=none;fillColor=none;html=1;fontSize=24;fontStyle=1;verticalAlign=middle;align=center;" vertex="1" parent="9_jHUoVymvyzzHVGm6bo-1">
          <mxGeometry x="70" y="164" width="170" height="40" as="geometry" />
        </mxCell>
        <mxCell id="9_jHUoVymvyzzHVGm6bo-70" value="Delete" style="text;strokeColor=none;fillColor=none;html=1;fontSize=24;fontStyle=1;verticalAlign=middle;align=center;" vertex="1" parent="9_jHUoVymvyzzHVGm6bo-1">
          <mxGeometry x="340" y="164" width="160" height="40" as="geometry" />
        </mxCell>
        <mxCell id="9_jHUoVymvyzzHVGm6bo-71" value="Edit" style="text;strokeColor=none;fillColor=none;html=1;fontSize=24;fontStyle=1;verticalAlign=middle;align=center;" vertex="1" parent="9_jHUoVymvyzzHVGm6bo-1">
          <mxGeometry x="610" y="164" width="160" height="40" as="geometry" />
        </mxCell>
        <mxCell id="9_jHUoVymvyzzHVGm6bo-72" value="View Counts" style="text;strokeColor=none;fillColor=none;html=1;fontSize=24;fontStyle=1;verticalAlign=middle;align=center;" vertex="1" parent="9_jHUoVymvyzzHVGm6bo-1">
          <mxGeometry x="890" y="164" width="160" height="40" as="geometry" />
        </mxCell>
        <mxCell id="9_jHUoVymvyzzHVGm6bo-73" value="App Nav Bar Menu" style="text;strokeColor=none;fillColor=none;html=1;fontSize=24;fontStyle=1;verticalAlign=middle;align=center;" vertex="1" parent="9_jHUoVymvyzzHVGm6bo-1">
          <mxGeometry x="460" y="25" width="250" height="40" as="geometry" />
        </mxCell>
        <mxCell id="9_jHUoVymvyzzHVGm6bo-74" value="" style="shape=image;html=1;verticalAlign=top;verticalLabelPosition=bottom;labelBackgroundColor=#ffffff;imageAspect=0;aspect=fixed;image=https://cdn4.iconfinder.com/data/icons/evil-icons-user-interface/64/menu-128.png" vertex="1" parent="9_jHUoVymvyzzHVGm6bo-1">
          <mxGeometry x="20" y="15" width="60" height="60" as="geometry" />
        </mxCell>
        <mxCell id="9_jHUoVymvyzzHVGm6bo-75" value="" style="rounded=0;whiteSpace=wrap;html=1;" vertex="1" parent="9_jHUoVymvyzzHVGm6bo-1">
          <mxGeometry x="900" y="90" width="200" height="60" as="geometry" />
        </mxCell>
        <mxCell id="9_jHUoVymvyzzHVGm6bo-76" value="" style="shape=image;html=1;verticalAlign=top;verticalLabelPosition=bottom;labelBackgroundColor=#ffffff;imageAspect=0;aspect=fixed;image=https://cdn3.iconfinder.com/data/icons/web-ui-3/128/Plus-2-128.png" vertex="1" parent="9_jHUoVymvyzzHVGm6bo-1">
          <mxGeometry x="910" y="95" width="50" height="50" as="geometry" />
        </mxCell>
        <mxCell id="9_jHUoVymvyzzHVGm6bo-77" value="Add Location" style="text;strokeColor=none;fillColor=none;html=1;fontSize=19;fontStyle=1;verticalAlign=middle;align=center;" vertex="1" parent="9_jHUoVymvyzzHVGm6bo-1">
          <mxGeometry x="960" y="100" width="130" height="40" as="geometry" />
        </mxCell>
        <mxCell id="9_jHUoVymvyzzHVGm6bo-78" value="Name" style="text;strokeColor=none;fillColor=none;html=1;fontSize=24;fontStyle=1;verticalAlign=middle;align=center;" vertex="1" parent="9_jHUoVymvyzzHVGm6bo-1">
          <mxGeometry x="70" y="210" width="170" height="40" as="geometry" />
        </mxCell>
        <mxCell id="9_jHUoVymvyzzHVGm6bo-79" value="Delete" style="text;strokeColor=none;fillColor=none;html=1;fontSize=24;fontStyle=1;verticalAlign=middle;align=center;" vertex="1" parent="9_jHUoVymvyzzHVGm6bo-1">
          <mxGeometry x="340" y="210" width="160" height="40" as="geometry" />
        </mxCell>
        <mxCell id="9_jHUoVymvyzzHVGm6bo-80" value="Edit" style="text;strokeColor=none;fillColor=none;html=1;fontSize=24;fontStyle=1;verticalAlign=middle;align=center;" vertex="1" parent="9_jHUoVymvyzzHVGm6bo-1">
          <mxGeometry x="610" y="210" width="160" height="40" as="geometry" />
        </mxCell>
        <mxCell id="9_jHUoVymvyzzHVGm6bo-81" value="View Counts" style="text;strokeColor=none;fillColor=none;html=1;fontSize=24;fontStyle=1;verticalAlign=middle;align=center;" vertex="1" parent="9_jHUoVymvyzzHVGm6bo-1">
          <mxGeometry x="890" y="210" width="160" height="40" as="geometry" />
        </mxCell>
        <mxCell id="9_jHUoVymvyzzHVGm6bo-82" value="Name" style="text;strokeColor=none;fillColor=none;html=1;fontSize=24;fontStyle=1;verticalAlign=middle;align=center;" vertex="1" parent="9_jHUoVymvyzzHVGm6bo-1">
          <mxGeometry x="70" y="260" width="170" height="40" as="geometry" />
        </mxCell>
        <mxCell id="9_jHUoVymvyzzHVGm6bo-83" value="Delete" style="text;strokeColor=none;fillColor=none;html=1;fontSize=24;fontStyle=1;verticalAlign=middle;align=center;" vertex="1" parent="9_jHUoVymvyzzHVGm6bo-1">
          <mxGeometry x="340" y="260" width="160" height="40" as="geometry" />
        </mxCell>
        <mxCell id="9_jHUoVymvyzzHVGm6bo-84" value="Edit" style="text;strokeColor=none;fillColor=none;html=1;fontSize=24;fontStyle=1;verticalAlign=middle;align=center;" vertex="1" parent="9_jHUoVymvyzzHVGm6bo-1">
          <mxGeometry x="610" y="260" width="160" height="40" as="geometry" />
        </mxCell>
        <mxCell id="9_jHUoVymvyzzHVGm6bo-85" value="View Counts" style="text;strokeColor=none;fillColor=none;html=1;fontSize=24;fontStyle=1;verticalAlign=middle;align=center;" vertex="1" parent="9_jHUoVymvyzzHVGm6bo-1">
          <mxGeometry x="890" y="260" width="160" height="40" as="geometry" />
        </mxCell>
        <mxCell id="9_jHUoVymvyzzHVGm6bo-86" value="Name" style="text;strokeColor=none;fillColor=none;html=1;fontSize=24;fontStyle=1;verticalAlign=middle;align=center;" vertex="1" parent="9_jHUoVymvyzzHVGm6bo-1">
          <mxGeometry x="70" y="310" width="170" height="40" as="geometry" />
        </mxCell>
        <mxCell id="9_jHUoVymvyzzHVGm6bo-87" value="Delete" style="text;strokeColor=none;fillColor=none;html=1;fontSize=24;fontStyle=1;verticalAlign=middle;align=center;" vertex="1" parent="9_jHUoVymvyzzHVGm6bo-1">
          <mxGeometry x="340" y="310" width="160" height="40" as="geometry" />
        </mxCell>
        <mxCell id="9_jHUoVymvyzzHVGm6bo-88" value="Edit" style="text;strokeColor=none;fillColor=none;html=1;fontSize=24;fontStyle=1;verticalAlign=middle;align=center;" vertex="1" parent="9_jHUoVymvyzzHVGm6bo-1">
          <mxGeometry x="610" y="310" width="160" height="40" as="geometry" />
        </mxCell>
        <mxCell id="9_jHUoVymvyzzHVGm6bo-89" value="View Counts" style="text;strokeColor=none;fillColor=none;html=1;fontSize=24;fontStyle=1;verticalAlign=middle;align=center;" vertex="1" parent="9_jHUoVymvyzzHVGm6bo-1">
          <mxGeometry x="890" y="310" width="160" height="40" as="geometry" />
        </mxCell>
        <mxCell id="9_jHUoVymvyzzHVGm6bo-90" value="Name" style="text;strokeColor=none;fillColor=none;html=1;fontSize=24;fontStyle=1;verticalAlign=middle;align=center;" vertex="1" parent="9_jHUoVymvyzzHVGm6bo-1">
          <mxGeometry x="70" y="360" width="170" height="40" as="geometry" />
        </mxCell>
        <mxCell id="9_jHUoVymvyzzHVGm6bo-91" value="Delete" style="text;strokeColor=none;fillColor=none;html=1;fontSize=24;fontStyle=1;verticalAlign=middle;align=center;" vertex="1" parent="9_jHUoVymvyzzHVGm6bo-1">
          <mxGeometry x="340" y="360" width="160" height="40" as="geometry" />
        </mxCell>
        <mxCell id="9_jHUoVymvyzzHVGm6bo-92" value="Edit" style="text;strokeColor=none;fillColor=none;html=1;fontSize=24;fontStyle=1;verticalAlign=middle;align=center;" vertex="1" parent="9_jHUoVymvyzzHVGm6bo-1">
          <mxGeometry x="610" y="350" width="160" height="40" as="geometry" />
        </mxCell>
        <mxCell id="9_jHUoVymvyzzHVGm6bo-93" value="View Counts" style="text;strokeColor=none;fillColor=none;html=1;fontSize=24;fontStyle=1;verticalAlign=middle;align=center;" vertex="1" parent="9_jHUoVymvyzzHVGm6bo-1">
          <mxGeometry x="890" y="360" width="160" height="40" as="geometry" />
        </mxCell>
        <mxCell id="9_jHUoVymvyzzHVGm6bo-94" value="Name" style="text;strokeColor=none;fillColor=none;html=1;fontSize=24;fontStyle=1;verticalAlign=middle;align=center;" vertex="1" parent="9_jHUoVymvyzzHVGm6bo-1">
          <mxGeometry x="70" y="400" width="170" height="40" as="geometry" />
        </mxCell>
        <mxCell id="9_jHUoVymvyzzHVGm6bo-95" value="Delete" style="text;strokeColor=none;fillColor=none;html=1;fontSize=24;fontStyle=1;verticalAlign=middle;align=center;" vertex="1" parent="9_jHUoVymvyzzHVGm6bo-1">
          <mxGeometry x="340" y="400" width="160" height="40" as="geometry" />
        </mxCell>
        <mxCell id="9_jHUoVymvyzzHVGm6bo-96" value="Edit" style="text;strokeColor=none;fillColor=none;html=1;fontSize=24;fontStyle=1;verticalAlign=middle;align=center;" vertex="1" parent="9_jHUoVymvyzzHVGm6bo-1">
          <mxGeometry x="610" y="400" width="160" height="40" as="geometry" />
        </mxCell>
        <mxCell id="9_jHUoVymvyzzHVGm6bo-97" value="View Counts" style="text;strokeColor=none;fillColor=none;html=1;fontSize=24;fontStyle=1;verticalAlign=middle;align=center;" vertex="1" parent="9_jHUoVymvyzzHVGm6bo-1">
          <mxGeometry x="890" y="400" width="160" height="40" as="geometry" />
        </mxCell>
        <mxCell id="9_jHUoVymvyzzHVGm6bo-98" value="Name" style="text;strokeColor=none;fillColor=none;html=1;fontSize=24;fontStyle=1;verticalAlign=middle;align=center;" vertex="1" parent="9_jHUoVymvyzzHVGm6bo-1">
          <mxGeometry x="70" y="450" width="170" height="40" as="geometry" />
        </mxCell>
        <mxCell id="9_jHUoVymvyzzHVGm6bo-99" value="Delete" style="text;strokeColor=none;fillColor=none;html=1;fontSize=24;fontStyle=1;verticalAlign=middle;align=center;" vertex="1" parent="9_jHUoVymvyzzHVGm6bo-1">
          <mxGeometry x="340" y="450" width="160" height="40" as="geometry" />
        </mxCell>
        <mxCell id="9_jHUoVymvyzzHVGm6bo-100" value="Edit" style="text;strokeColor=none;fillColor=none;html=1;fontSize=24;fontStyle=1;verticalAlign=middle;align=center;" vertex="1" parent="9_jHUoVymvyzzHVGm6bo-1">
          <mxGeometry x="610" y="450" width="160" height="40" as="geometry" />
        </mxCell>
        <mxCell id="9_jHUoVymvyzzHVGm6bo-101" value="View Counts" style="text;strokeColor=none;fillColor=none;html=1;fontSize=24;fontStyle=1;verticalAlign=middle;align=center;" vertex="1" parent="9_jHUoVymvyzzHVGm6bo-1">
          <mxGeometry x="890" y="450" width="160" height="40" as="geometry" />
        </mxCell>
        <mxCell id="9_jHUoVymvyzzHVGm6bo-102" value="Name" style="text;strokeColor=none;fillColor=none;html=1;fontSize=24;fontStyle=1;verticalAlign=middle;align=center;" vertex="1" parent="9_jHUoVymvyzzHVGm6bo-1">
          <mxGeometry x="70" y="500" width="170" height="40" as="geometry" />
        </mxCell>
        <mxCell id="9_jHUoVymvyzzHVGm6bo-103" value="Delete" style="text;strokeColor=none;fillColor=none;html=1;fontSize=24;fontStyle=1;verticalAlign=middle;align=center;" vertex="1" parent="9_jHUoVymvyzzHVGm6bo-1">
          <mxGeometry x="340" y="500" width="160" height="40" as="geometry" />
        </mxCell>
        <mxCell id="9_jHUoVymvyzzHVGm6bo-104" value="Edit" style="text;strokeColor=none;fillColor=none;html=1;fontSize=24;fontStyle=1;verticalAlign=middle;align=center;" vertex="1" parent="9_jHUoVymvyzzHVGm6bo-1">
          <mxGeometry x="610" y="500" width="160" height="40" as="geometry" />
        </mxCell>
        <mxCell id="9_jHUoVymvyzzHVGm6bo-105" value="View Counts" style="text;strokeColor=none;fillColor=none;html=1;fontSize=24;fontStyle=1;verticalAlign=middle;align=center;" vertex="1" parent="9_jHUoVymvyzzHVGm6bo-1">
          <mxGeometry x="890" y="500" width="160" height="40" as="geometry" />
        </mxCell>
        <mxCell id="9_jHUoVymvyzzHVGm6bo-106" value="Name" style="text;strokeColor=none;fillColor=none;html=1;fontSize=24;fontStyle=1;verticalAlign=middle;align=center;" vertex="1" parent="9_jHUoVymvyzzHVGm6bo-1">
          <mxGeometry x="70" y="550" width="170" height="40" as="geometry" />
        </mxCell>
        <mxCell id="9_jHUoVymvyzzHVGm6bo-107" value="Delete" style="text;strokeColor=none;fillColor=none;html=1;fontSize=24;fontStyle=1;verticalAlign=middle;align=center;" vertex="1" parent="9_jHUoVymvyzzHVGm6bo-1">
          <mxGeometry x="340" y="550" width="160" height="40" as="geometry" />
        </mxCell>
        <mxCell id="9_jHUoVymvyzzHVGm6bo-108" value="Edit" style="text;strokeColor=none;fillColor=none;html=1;fontSize=24;fontStyle=1;verticalAlign=middle;align=center;" vertex="1" parent="9_jHUoVymvyzzHVGm6bo-1">
          <mxGeometry x="610" y="550" width="160" height="40" as="geometry" />
        </mxCell>
        <mxCell id="9_jHUoVymvyzzHVGm6bo-109" value="View Counts" style="text;strokeColor=none;fillColor=none;html=1;fontSize=24;fontStyle=1;verticalAlign=middle;align=center;" vertex="1" parent="9_jHUoVymvyzzHVGm6bo-1">
          <mxGeometry x="890" y="550" width="160" height="40" as="geometry" />
        </mxCell>
        <mxCell id="9_jHUoVymvyzzHVGm6bo-110" value="Name" style="text;strokeColor=none;fillColor=none;html=1;fontSize=24;fontStyle=1;verticalAlign=middle;align=center;" vertex="1" parent="9_jHUoVymvyzzHVGm6bo-1">
          <mxGeometry x="70" y="590" width="170" height="40" as="geometry" />
        </mxCell>
        <mxCell id="9_jHUoVymvyzzHVGm6bo-111" value="Delete" style="text;strokeColor=none;fillColor=none;html=1;fontSize=24;fontStyle=1;verticalAlign=middle;align=center;" vertex="1" parent="9_jHUoVymvyzzHVGm6bo-1">
          <mxGeometry x="340" y="590" width="160" height="40" as="geometry" />
        </mxCell>
        <mxCell id="9_jHUoVymvyzzHVGm6bo-112" value="Edit" style="text;strokeColor=none;fillColor=none;html=1;fontSize=24;fontStyle=1;verticalAlign=middle;align=center;" vertex="1" parent="9_jHUoVymvyzzHVGm6bo-1">
          <mxGeometry x="610" y="590" width="160" height="40" as="geometry" />
        </mxCell>
        <mxCell id="9_jHUoVymvyzzHVGm6bo-113" value="View Counts" style="text;strokeColor=none;fillColor=none;html=1;fontSize=24;fontStyle=1;verticalAlign=middle;align=center;" vertex="1" parent="9_jHUoVymvyzzHVGm6bo-1">
          <mxGeometry x="890" y="600" width="160" height="40" as="geometry" />
        </mxCell>
        <mxCell id="9_jHUoVymvyzzHVGm6bo-114" value="Name" style="text;strokeColor=none;fillColor=none;html=1;fontSize=24;fontStyle=1;verticalAlign=middle;align=center;" vertex="1" parent="9_jHUoVymvyzzHVGm6bo-1">
          <mxGeometry x="70" y="640" width="170" height="40" as="geometry" />
        </mxCell>
        <mxCell id="9_jHUoVymvyzzHVGm6bo-115" value="Delete" style="text;strokeColor=none;fillColor=none;html=1;fontSize=24;fontStyle=1;verticalAlign=middle;align=center;" vertex="1" parent="9_jHUoVymvyzzHVGm6bo-1">
          <mxGeometry x="340" y="640" width="160" height="40" as="geometry" />
        </mxCell>
        <mxCell id="9_jHUoVymvyzzHVGm6bo-116" value="Edit" style="text;strokeColor=none;fillColor=none;html=1;fontSize=24;fontStyle=1;verticalAlign=middle;align=center;" vertex="1" parent="9_jHUoVymvyzzHVGm6bo-1">
          <mxGeometry x="610" y="640" width="160" height="40" as="geometry" />
        </mxCell>
        <mxCell id="9_jHUoVymvyzzHVGm6bo-117" value="View Counts" style="text;strokeColor=none;fillColor=none;html=1;fontSize=24;fontStyle=1;verticalAlign=middle;align=center;" vertex="1" parent="9_jHUoVymvyzzHVGm6bo-1">
          <mxGeometry x="890" y="640" width="160" height="40" as="geometry" />
        </mxCell>
        <mxCell id="9_jHUoVymvyzzHVGm6bo-118" value="Name" style="text;strokeColor=none;fillColor=none;html=1;fontSize=24;fontStyle=1;verticalAlign=middle;align=center;" vertex="1" parent="9_jHUoVymvyzzHVGm6bo-1">
          <mxGeometry x="70" y="690" width="170" height="40" as="geometry" />
        </mxCell>
        <mxCell id="9_jHUoVymvyzzHVGm6bo-119" value="Delete" style="text;strokeColor=none;fillColor=none;html=1;fontSize=24;fontStyle=1;verticalAlign=middle;align=center;" vertex="1" parent="9_jHUoVymvyzzHVGm6bo-1">
          <mxGeometry x="340" y="690" width="160" height="40" as="geometry" />
        </mxCell>
        <mxCell id="9_jHUoVymvyzzHVGm6bo-120" value="Edit" style="text;strokeColor=none;fillColor=none;html=1;fontSize=24;fontStyle=1;verticalAlign=middle;align=center;" vertex="1" parent="9_jHUoVymvyzzHVGm6bo-1">
          <mxGeometry x="610" y="690" width="160" height="40" as="geometry" />
        </mxCell>
        <mxCell id="9_jHUoVymvyzzHVGm6bo-121" value="View Counts" style="text;strokeColor=none;fillColor=none;html=1;fontSize=24;fontStyle=1;verticalAlign=middle;align=center;" vertex="1" parent="9_jHUoVymvyzzHVGm6bo-1">
          <mxGeometry x="890" y="690" width="160" height="40" as="geometry" />
        </mxCell>
        <mxCell id="9_jHUoVymvyzzHVGm6bo-122" value="Name" style="text;strokeColor=none;fillColor=none;html=1;fontSize=24;fontStyle=1;verticalAlign=middle;align=center;" vertex="1" parent="9_jHUoVymvyzzHVGm6bo-1">
          <mxGeometry x="70" y="740" width="170" height="40" as="geometry" />
        </mxCell>
        <mxCell id="9_jHUoVymvyzzHVGm6bo-123" value="Delete" style="text;strokeColor=none;fillColor=none;html=1;fontSize=24;fontStyle=1;verticalAlign=middle;align=center;" vertex="1" parent="9_jHUoVymvyzzHVGm6bo-1">
          <mxGeometry x="340" y="740" width="160" height="40" as="geometry" />
        </mxCell>
        <mxCell id="9_jHUoVymvyzzHVGm6bo-124" value="Edit" style="text;strokeColor=none;fillColor=none;html=1;fontSize=24;fontStyle=1;verticalAlign=middle;align=center;" vertex="1" parent="9_jHUoVymvyzzHVGm6bo-1">
          <mxGeometry x="610" y="740" width="160" height="40" as="geometry" />
        </mxCell>
        <mxCell id="9_jHUoVymvyzzHVGm6bo-125" value="View Counts" style="text;strokeColor=none;fillColor=none;html=1;fontSize=24;fontStyle=1;verticalAlign=middle;align=center;" vertex="1" parent="9_jHUoVymvyzzHVGm6bo-1">
          <mxGeometry x="890" y="730" width="160" height="40" as="geometry" />
        </mxCell>
      </root>
    </mxGraphModel>
  </diagram>
  <diagram name="Add Device Page" id="hnEg4cLaYZQVXpIe0wRB">
    <mxGraphModel dx="1426" dy="751" grid="1" gridSize="10" guides="1" tooltips="1" connect="1" arrows="1" fold="1" page="1" pageScale="1" pageWidth="1169" pageHeight="827" math="0" shadow="0">
      <root>
        <mxCell id="ubZf2DW1L-9Tn_UhxrqK-0" />
        <mxCell id="ubZf2DW1L-9Tn_UhxrqK-1" parent="ubZf2DW1L-9Tn_UhxrqK-0" />
        <mxCell id="ubZf2DW1L-9Tn_UhxrqK-2" value="" style="rounded=0;whiteSpace=wrap;html=1;" vertex="1" parent="ubZf2DW1L-9Tn_UhxrqK-1">
          <mxGeometry x="10" y="10" width="1150" height="70" as="geometry" />
        </mxCell>
        <mxCell id="ubZf2DW1L-9Tn_UhxrqK-73" value="App Nav Bar Menu" style="text;strokeColor=none;fillColor=none;html=1;fontSize=24;fontStyle=1;verticalAlign=middle;align=center;" vertex="1" parent="ubZf2DW1L-9Tn_UhxrqK-1">
          <mxGeometry x="460" y="25" width="250" height="40" as="geometry" />
        </mxCell>
        <mxCell id="ubZf2DW1L-9Tn_UhxrqK-74" value="" style="shape=image;html=1;verticalAlign=top;verticalLabelPosition=bottom;labelBackgroundColor=#ffffff;imageAspect=0;aspect=fixed;image=https://cdn4.iconfinder.com/data/icons/evil-icons-user-interface/64/menu-128.png" vertex="1" parent="ubZf2DW1L-9Tn_UhxrqK-1">
          <mxGeometry x="20" y="15" width="60" height="60" as="geometry" />
        </mxCell>
        <mxCell id="bq2dsRXIxcF4LXSNbz2L-1" value="" style="rounded=0;whiteSpace=wrap;html=1;" vertex="1" parent="ubZf2DW1L-9Tn_UhxrqK-1">
          <mxGeometry x="20" y="100" width="1130" height="660" as="geometry" />
        </mxCell>
        <mxCell id="bq2dsRXIxcF4LXSNbz2L-2" value="" style="rounded=0;whiteSpace=wrap;html=1;" vertex="1" parent="ubZf2DW1L-9Tn_UhxrqK-1">
          <mxGeometry x="20" y="100" width="1130" height="60" as="geometry" />
        </mxCell>
        <mxCell id="bq2dsRXIxcF4LXSNbz2L-3" value="&lt;div&gt;Add Device&lt;/div&gt;" style="text;strokeColor=none;fillColor=none;html=1;fontSize=24;fontStyle=1;verticalAlign=middle;align=center;" vertex="1" parent="ubZf2DW1L-9Tn_UhxrqK-1">
          <mxGeometry x="535" y="110" width="100" height="40" as="geometry" />
        </mxCell>
        <mxCell id="bq2dsRXIxcF4LXSNbz2L-4" value="Name" style="text;strokeColor=none;fillColor=none;html=1;fontSize=24;fontStyle=1;verticalAlign=middle;align=center;" vertex="1" parent="ubZf2DW1L-9Tn_UhxrqK-1">
          <mxGeometry x="30" y="180" width="100" height="40" as="geometry" />
        </mxCell>
        <mxCell id="bq2dsRXIxcF4LXSNbz2L-5" value="Location" style="text;strokeColor=none;fillColor=none;html=1;fontSize=24;fontStyle=1;verticalAlign=middle;align=center;" vertex="1" parent="ubZf2DW1L-9Tn_UhxrqK-1">
          <mxGeometry x="50" y="300" width="100" height="40" as="geometry" />
        </mxCell>
        <mxCell id="bq2dsRXIxcF4LXSNbz2L-6" value="&lt;div&gt;Active&lt;/div&gt;" style="text;strokeColor=none;fillColor=none;html=1;fontSize=24;fontStyle=1;verticalAlign=middle;align=center;" vertex="1" parent="ubZf2DW1L-9Tn_UhxrqK-1">
          <mxGeometry x="40" y="430" width="100" height="40" as="geometry" />
        </mxCell>
        <mxCell id="bq2dsRXIxcF4LXSNbz2L-8" value="" style="line;strokeWidth=2;html=1;" vertex="1" parent="ubZf2DW1L-9Tn_UhxrqK-1">
          <mxGeometry x="50" y="250" width="260" height="10" as="geometry" />
        </mxCell>
        <mxCell id="bq2dsRXIxcF4LXSNbz2L-9" value="" style="line;strokeWidth=2;html=1;" vertex="1" parent="ubZf2DW1L-9Tn_UhxrqK-1">
          <mxGeometry x="50" y="370" width="260" height="10" as="geometry" />
        </mxCell>
        <mxCell id="bq2dsRXIxcF4LXSNbz2L-11" value="" style="dashed=0;labelPosition=right;align=left;shape=mxgraph.gmdl.checkbox;strokeColor=none;fillColor=#B0B0B0;strokeWidth=2;aspect=fixed;sketch=0;html=1;" vertex="1" parent="ubZf2DW1L-9Tn_UhxrqK-1">
          <mxGeometry x="150" y="435" width="35" height="35" as="geometry" />
        </mxCell>
        <mxCell id="XDvbPGri6fiUDyzWr8xw-0" value="" style="shape=image;html=1;verticalAlign=top;verticalLabelPosition=bottom;labelBackgroundColor=#ffffff;imageAspect=0;aspect=fixed;image=https://cdn1.iconfinder.com/data/icons/systemui/21/button_add-128.png" vertex="1" parent="ubZf2DW1L-9Tn_UhxrqK-1">
          <mxGeometry x="30" y="530" width="88" height="88" as="geometry" />
        </mxCell>
        <mxCell id="XDvbPGri6fiUDyzWr8xw-2" value="Add Device" style="text;strokeColor=none;fillColor=none;html=1;fontSize=24;fontStyle=1;verticalAlign=middle;align=center;" vertex="1" parent="ubZf2DW1L-9Tn_UhxrqK-1">
          <mxGeometry x="140" y="554" width="100" height="40" as="geometry" />
        </mxCell>
      </root>
    </mxGraphModel>
  </diagram>
  <diagram name="Add Location Page" id="JKejMGxSPncejuzCmVu_">
    <mxGraphModel dx="1426" dy="751" grid="1" gridSize="10" guides="1" tooltips="1" connect="1" arrows="1" fold="1" page="1" pageScale="1" pageWidth="1169" pageHeight="827" math="0" shadow="0">
      <root>
        <mxCell id="amVUuy-HPoRgk4gXx_zQ-0" />
        <mxCell id="amVUuy-HPoRgk4gXx_zQ-1" parent="amVUuy-HPoRgk4gXx_zQ-0" />
        <mxCell id="amVUuy-HPoRgk4gXx_zQ-2" value="" style="rounded=0;whiteSpace=wrap;html=1;" vertex="1" parent="amVUuy-HPoRgk4gXx_zQ-1">
          <mxGeometry x="10" y="10" width="1150" height="70" as="geometry" />
        </mxCell>
        <mxCell id="amVUuy-HPoRgk4gXx_zQ-3" value="App Nav Bar Menu" style="text;strokeColor=none;fillColor=none;html=1;fontSize=24;fontStyle=1;verticalAlign=middle;align=center;" vertex="1" parent="amVUuy-HPoRgk4gXx_zQ-1">
          <mxGeometry x="460" y="25" width="250" height="40" as="geometry" />
        </mxCell>
        <mxCell id="amVUuy-HPoRgk4gXx_zQ-4" value="" style="shape=image;html=1;verticalAlign=top;verticalLabelPosition=bottom;labelBackgroundColor=#ffffff;imageAspect=0;aspect=fixed;image=https://cdn4.iconfinder.com/data/icons/evil-icons-user-interface/64/menu-128.png" vertex="1" parent="amVUuy-HPoRgk4gXx_zQ-1">
          <mxGeometry x="20" y="15" width="60" height="60" as="geometry" />
        </mxCell>
        <mxCell id="amVUuy-HPoRgk4gXx_zQ-5" value="" style="rounded=0;whiteSpace=wrap;html=1;" vertex="1" parent="amVUuy-HPoRgk4gXx_zQ-1">
          <mxGeometry x="20" y="100" width="1130" height="660" as="geometry" />
        </mxCell>
        <mxCell id="amVUuy-HPoRgk4gXx_zQ-6" value="" style="rounded=0;whiteSpace=wrap;html=1;" vertex="1" parent="amVUuy-HPoRgk4gXx_zQ-1">
          <mxGeometry x="20" y="100" width="1130" height="60" as="geometry" />
        </mxCell>
        <mxCell id="amVUuy-HPoRgk4gXx_zQ-7" value="Add Location" style="text;strokeColor=none;fillColor=none;html=1;fontSize=24;fontStyle=1;verticalAlign=middle;align=center;" vertex="1" parent="amVUuy-HPoRgk4gXx_zQ-1">
          <mxGeometry x="535" y="110" width="100" height="40" as="geometry" />
        </mxCell>
        <mxCell id="amVUuy-HPoRgk4gXx_zQ-8" value="Name" style="text;strokeColor=none;fillColor=none;html=1;fontSize=24;fontStyle=1;verticalAlign=middle;align=center;" vertex="1" parent="amVUuy-HPoRgk4gXx_zQ-1">
          <mxGeometry x="30" y="180" width="100" height="40" as="geometry" />
        </mxCell>
        <mxCell id="amVUuy-HPoRgk4gXx_zQ-9" value="Address" style="text;strokeColor=none;fillColor=none;html=1;fontSize=24;fontStyle=1;verticalAlign=middle;align=center;" vertex="1" parent="amVUuy-HPoRgk4gXx_zQ-1">
          <mxGeometry x="50" y="300" width="100" height="40" as="geometry" />
        </mxCell>
        <mxCell id="amVUuy-HPoRgk4gXx_zQ-11" value="" style="line;strokeWidth=2;html=1;" vertex="1" parent="amVUuy-HPoRgk4gXx_zQ-1">
          <mxGeometry x="50" y="250" width="260" height="10" as="geometry" />
        </mxCell>
        <mxCell id="amVUuy-HPoRgk4gXx_zQ-12" value="" style="line;strokeWidth=2;html=1;" vertex="1" parent="amVUuy-HPoRgk4gXx_zQ-1">
          <mxGeometry x="50" y="370" width="260" height="10" as="geometry" />
        </mxCell>
        <mxCell id="6ODgPhfbl-fUfS0mhyy6-0" value="" style="shape=image;html=1;verticalAlign=top;verticalLabelPosition=bottom;labelBackgroundColor=#ffffff;imageAspect=0;aspect=fixed;image=https://cdn1.iconfinder.com/data/icons/systemui/21/button_add-128.png" vertex="1" parent="amVUuy-HPoRgk4gXx_zQ-1">
          <mxGeometry x="30" y="413.5" width="88" height="88" as="geometry" />
        </mxCell>
        <mxCell id="6ODgPhfbl-fUfS0mhyy6-1" value="Add Location" style="text;strokeColor=none;fillColor=none;html=1;fontSize=24;fontStyle=1;verticalAlign=middle;align=center;" vertex="1" parent="amVUuy-HPoRgk4gXx_zQ-1">
          <mxGeometry x="140" y="437.5" width="100" height="40" as="geometry" />
        </mxCell>
      </root>
    </mxGraphModel>
  </diagram>
  <diagram name="Edit Device Page" id="MQdiiWHo3-ch88olqmzm">
    <mxGraphModel dx="1426" dy="751" grid="1" gridSize="10" guides="1" tooltips="1" connect="1" arrows="1" fold="1" page="1" pageScale="1" pageWidth="1169" pageHeight="827" math="0" shadow="0">
      <root>
        <mxCell id="y1LEz-r6pDeVSTHG4QnH-0" />
        <mxCell id="y1LEz-r6pDeVSTHG4QnH-1" parent="y1LEz-r6pDeVSTHG4QnH-0" />
        <mxCell id="y1LEz-r6pDeVSTHG4QnH-2" value="" style="rounded=0;whiteSpace=wrap;html=1;" vertex="1" parent="y1LEz-r6pDeVSTHG4QnH-1">
          <mxGeometry x="10" y="10" width="1150" height="70" as="geometry" />
        </mxCell>
        <mxCell id="y1LEz-r6pDeVSTHG4QnH-3" value="App Nav Bar Menu" style="text;strokeColor=none;fillColor=none;html=1;fontSize=24;fontStyle=1;verticalAlign=middle;align=center;" vertex="1" parent="y1LEz-r6pDeVSTHG4QnH-1">
          <mxGeometry x="460" y="25" width="250" height="40" as="geometry" />
        </mxCell>
        <mxCell id="y1LEz-r6pDeVSTHG4QnH-4" value="" style="shape=image;html=1;verticalAlign=top;verticalLabelPosition=bottom;labelBackgroundColor=#ffffff;imageAspect=0;aspect=fixed;image=https://cdn4.iconfinder.com/data/icons/evil-icons-user-interface/64/menu-128.png" vertex="1" parent="y1LEz-r6pDeVSTHG4QnH-1">
          <mxGeometry x="20" y="15" width="60" height="60" as="geometry" />
        </mxCell>
        <mxCell id="y1LEz-r6pDeVSTHG4QnH-5" value="" style="rounded=0;whiteSpace=wrap;html=1;" vertex="1" parent="y1LEz-r6pDeVSTHG4QnH-1">
          <mxGeometry x="20" y="100" width="1130" height="660" as="geometry" />
        </mxCell>
        <mxCell id="y1LEz-r6pDeVSTHG4QnH-6" value="" style="rounded=0;whiteSpace=wrap;html=1;" vertex="1" parent="y1LEz-r6pDeVSTHG4QnH-1">
          <mxGeometry x="20" y="100" width="1130" height="60" as="geometry" />
        </mxCell>
        <mxCell id="y1LEz-r6pDeVSTHG4QnH-7" value="&lt;div&gt;Edit Device&lt;/div&gt;" style="text;strokeColor=none;fillColor=none;html=1;fontSize=24;fontStyle=1;verticalAlign=middle;align=center;" vertex="1" parent="y1LEz-r6pDeVSTHG4QnH-1">
          <mxGeometry x="535" y="110" width="100" height="40" as="geometry" />
        </mxCell>
        <mxCell id="y1LEz-r6pDeVSTHG4QnH-8" value="Name" style="text;strokeColor=none;fillColor=none;html=1;fontSize=24;fontStyle=1;verticalAlign=middle;align=center;" vertex="1" parent="y1LEz-r6pDeVSTHG4QnH-1">
          <mxGeometry x="30" y="180" width="100" height="40" as="geometry" />
        </mxCell>
        <mxCell id="y1LEz-r6pDeVSTHG4QnH-9" value="Location" style="text;strokeColor=none;fillColor=none;html=1;fontSize=24;fontStyle=1;verticalAlign=middle;align=center;" vertex="1" parent="y1LEz-r6pDeVSTHG4QnH-1">
          <mxGeometry x="50" y="300" width="100" height="40" as="geometry" />
        </mxCell>
        <mxCell id="y1LEz-r6pDeVSTHG4QnH-10" value="&lt;div&gt;Active&lt;/div&gt;" style="text;strokeColor=none;fillColor=none;html=1;fontSize=24;fontStyle=1;verticalAlign=middle;align=center;" vertex="1" parent="y1LEz-r6pDeVSTHG4QnH-1">
          <mxGeometry x="40" y="430" width="100" height="40" as="geometry" />
        </mxCell>
        <mxCell id="y1LEz-r6pDeVSTHG4QnH-11" value="" style="line;strokeWidth=2;html=1;" vertex="1" parent="y1LEz-r6pDeVSTHG4QnH-1">
          <mxGeometry x="50" y="250" width="260" height="10" as="geometry" />
        </mxCell>
        <mxCell id="y1LEz-r6pDeVSTHG4QnH-12" value="" style="line;strokeWidth=2;html=1;" vertex="1" parent="y1LEz-r6pDeVSTHG4QnH-1">
          <mxGeometry x="50" y="370" width="260" height="10" as="geometry" />
        </mxCell>
        <mxCell id="y1LEz-r6pDeVSTHG4QnH-13" value="" style="dashed=0;labelPosition=right;align=left;shape=mxgraph.gmdl.checkbox;strokeColor=none;fillColor=#B0B0B0;strokeWidth=2;aspect=fixed;sketch=0;html=1;" vertex="1" parent="y1LEz-r6pDeVSTHG4QnH-1">
          <mxGeometry x="150" y="435" width="35" height="35" as="geometry" />
        </mxCell>
        <mxCell id="nxw9LN26r3NoxpaEj7Bx-0" value="Pre-existing Name" style="text;html=1;align=center;verticalAlign=middle;whiteSpace=wrap;rounded=0;" vertex="1" parent="y1LEz-r6pDeVSTHG4QnH-1">
          <mxGeometry x="50" y="220" width="110" height="30" as="geometry" />
        </mxCell>
        <mxCell id="nxw9LN26r3NoxpaEj7Bx-2" value="Pre-existing Location" style="text;html=1;align=center;verticalAlign=middle;whiteSpace=wrap;rounded=0;" vertex="1" parent="y1LEz-r6pDeVSTHG4QnH-1">
          <mxGeometry x="50" y="340" width="150" height="30" as="geometry" />
        </mxCell>
        <mxCell id="mbhKnXTTmXu_jjP6XBZs-0" value="" style="shape=image;html=1;verticalAlign=top;verticalLabelPosition=bottom;labelBackgroundColor=#ffffff;imageAspect=0;aspect=fixed;image=https://cdn1.iconfinder.com/data/icons/systemui/21/button_add-128.png" vertex="1" parent="y1LEz-r6pDeVSTHG4QnH-1">
          <mxGeometry x="40" y="480" width="88" height="88" as="geometry" />
        </mxCell>
        <mxCell id="mbhKnXTTmXu_jjP6XBZs-1" value="Update Device" style="text;strokeColor=none;fillColor=none;html=1;fontSize=24;fontStyle=1;verticalAlign=middle;align=center;" vertex="1" parent="y1LEz-r6pDeVSTHG4QnH-1">
          <mxGeometry x="160" y="504" width="100" height="40" as="geometry" />
        </mxCell>
      </root>
    </mxGraphModel>
  </diagram>
  <diagram name="Edit Location Page" id="WZMbTo4Z0tKaxWObNNH4">
    <mxGraphModel dx="1426" dy="751" grid="1" gridSize="10" guides="1" tooltips="1" connect="1" arrows="1" fold="1" page="1" pageScale="1" pageWidth="1169" pageHeight="827" math="0" shadow="0">
      <root>
        <mxCell id="ueqyyJ1Wo6IbdJDQ46gj-0" />
        <mxCell id="ueqyyJ1Wo6IbdJDQ46gj-1" parent="ueqyyJ1Wo6IbdJDQ46gj-0" />
        <mxCell id="ueqyyJ1Wo6IbdJDQ46gj-2" value="" style="rounded=0;whiteSpace=wrap;html=1;" vertex="1" parent="ueqyyJ1Wo6IbdJDQ46gj-1">
          <mxGeometry x="10" y="10" width="1150" height="70" as="geometry" />
        </mxCell>
        <mxCell id="ueqyyJ1Wo6IbdJDQ46gj-3" value="App Nav Bar Menu" style="text;strokeColor=none;fillColor=none;html=1;fontSize=24;fontStyle=1;verticalAlign=middle;align=center;" vertex="1" parent="ueqyyJ1Wo6IbdJDQ46gj-1">
          <mxGeometry x="460" y="25" width="250" height="40" as="geometry" />
        </mxCell>
        <mxCell id="ueqyyJ1Wo6IbdJDQ46gj-4" value="" style="shape=image;html=1;verticalAlign=top;verticalLabelPosition=bottom;labelBackgroundColor=#ffffff;imageAspect=0;aspect=fixed;image=https://cdn4.iconfinder.com/data/icons/evil-icons-user-interface/64/menu-128.png" vertex="1" parent="ueqyyJ1Wo6IbdJDQ46gj-1">
          <mxGeometry x="20" y="15" width="60" height="60" as="geometry" />
        </mxCell>
        <mxCell id="ueqyyJ1Wo6IbdJDQ46gj-5" value="" style="rounded=0;whiteSpace=wrap;html=1;" vertex="1" parent="ueqyyJ1Wo6IbdJDQ46gj-1">
          <mxGeometry x="20" y="100" width="1130" height="660" as="geometry" />
        </mxCell>
        <mxCell id="ueqyyJ1Wo6IbdJDQ46gj-6" value="" style="rounded=0;whiteSpace=wrap;html=1;" vertex="1" parent="ueqyyJ1Wo6IbdJDQ46gj-1">
          <mxGeometry x="20" y="100" width="1130" height="60" as="geometry" />
        </mxCell>
        <mxCell id="ueqyyJ1Wo6IbdJDQ46gj-7" value="Add Location" style="text;strokeColor=none;fillColor=none;html=1;fontSize=24;fontStyle=1;verticalAlign=middle;align=center;" vertex="1" parent="ueqyyJ1Wo6IbdJDQ46gj-1">
          <mxGeometry x="535" y="110" width="100" height="40" as="geometry" />
        </mxCell>
        <mxCell id="ueqyyJ1Wo6IbdJDQ46gj-8" value="Name" style="text;strokeColor=none;fillColor=none;html=1;fontSize=24;fontStyle=1;verticalAlign=middle;align=center;" vertex="1" parent="ueqyyJ1Wo6IbdJDQ46gj-1">
          <mxGeometry x="30" y="180" width="100" height="40" as="geometry" />
        </mxCell>
        <mxCell id="ueqyyJ1Wo6IbdJDQ46gj-9" value="Address" style="text;strokeColor=none;fillColor=none;html=1;fontSize=24;fontStyle=1;verticalAlign=middle;align=center;" vertex="1" parent="ueqyyJ1Wo6IbdJDQ46gj-1">
          <mxGeometry x="50" y="300" width="100" height="40" as="geometry" />
        </mxCell>
        <mxCell id="ueqyyJ1Wo6IbdJDQ46gj-10" value="" style="line;strokeWidth=2;html=1;" vertex="1" parent="ueqyyJ1Wo6IbdJDQ46gj-1">
          <mxGeometry x="50" y="250" width="260" height="10" as="geometry" />
        </mxCell>
        <mxCell id="ueqyyJ1Wo6IbdJDQ46gj-11" value="" style="line;strokeWidth=2;html=1;" vertex="1" parent="ueqyyJ1Wo6IbdJDQ46gj-1">
          <mxGeometry x="50" y="370" width="260" height="10" as="geometry" />
        </mxCell>
        <mxCell id="LrObKJ43lyGDLejHVd1S-0" value="Pre-existing Name" style="text;html=1;align=center;verticalAlign=middle;whiteSpace=wrap;rounded=0;" vertex="1" parent="ueqyyJ1Wo6IbdJDQ46gj-1">
          <mxGeometry x="45" y="220" width="110" height="30" as="geometry" />
        </mxCell>
        <mxCell id="LrObKJ43lyGDLejHVd1S-1" value="Pre-existing Address" style="text;html=1;align=center;verticalAlign=middle;whiteSpace=wrap;rounded=0;" vertex="1" parent="ueqyyJ1Wo6IbdJDQ46gj-1">
          <mxGeometry x="50" y="340" width="130" height="30" as="geometry" />
        </mxCell>
        <mxCell id="OFNhG5cpyQBltbVHy1zI-0" value="" style="shape=image;html=1;verticalAlign=top;verticalLabelPosition=bottom;labelBackgroundColor=#ffffff;imageAspect=0;aspect=fixed;image=https://cdn1.iconfinder.com/data/icons/systemui/21/button_add-128.png" vertex="1" parent="ueqyyJ1Wo6IbdJDQ46gj-1">
          <mxGeometry x="30" y="414" width="88" height="88" as="geometry" />
        </mxCell>
        <mxCell id="OFNhG5cpyQBltbVHy1zI-1" value="Update Location" style="text;strokeColor=none;fillColor=none;html=1;fontSize=24;fontStyle=1;verticalAlign=middle;align=center;" vertex="1" parent="ueqyyJ1Wo6IbdJDQ46gj-1">
          <mxGeometry x="150" y="438" width="100" height="40" as="geometry" />
        </mxCell>
      </root>
    </mxGraphModel>
  </diagram>
  <diagram name="View Counts Page &quot;Device&quot;" id="T9-EUAQ9VFt1JrhXZDe9">
    <mxGraphModel dx="1426" dy="751" grid="1" gridSize="10" guides="1" tooltips="1" connect="1" arrows="1" fold="1" page="1" pageScale="1" pageWidth="1169" pageHeight="827" math="0" shadow="0">
      <root>
        <mxCell id="n13ThCYYshuHah-QFAla-0" />
        <mxCell id="n13ThCYYshuHah-QFAla-1" parent="n13ThCYYshuHah-QFAla-0" />
        <mxCell id="n13ThCYYshuHah-QFAla-2" value="" style="rounded=0;whiteSpace=wrap;html=1;" vertex="1" parent="n13ThCYYshuHah-QFAla-1">
          <mxGeometry x="10" y="10" width="1150" height="70" as="geometry" />
        </mxCell>
        <mxCell id="n13ThCYYshuHah-QFAla-3" value="App Nav Bar Menu" style="text;strokeColor=none;fillColor=none;html=1;fontSize=24;fontStyle=1;verticalAlign=middle;align=center;" vertex="1" parent="n13ThCYYshuHah-QFAla-1">
          <mxGeometry x="460" y="25" width="250" height="40" as="geometry" />
        </mxCell>
        <mxCell id="n13ThCYYshuHah-QFAla-4" value="" style="shape=image;html=1;verticalAlign=top;verticalLabelPosition=bottom;labelBackgroundColor=#ffffff;imageAspect=0;aspect=fixed;image=https://cdn4.iconfinder.com/data/icons/evil-icons-user-interface/64/menu-128.png" vertex="1" parent="n13ThCYYshuHah-QFAla-1">
          <mxGeometry x="20" y="15" width="60" height="60" as="geometry" />
        </mxCell>
        <mxCell id="n13ThCYYshuHah-QFAla-5" value="" style="rounded=0;whiteSpace=wrap;html=1;" vertex="1" parent="n13ThCYYshuHah-QFAla-1">
          <mxGeometry x="20" y="100" width="1130" height="660" as="geometry" />
        </mxCell>
        <mxCell id="n13ThCYYshuHah-QFAla-6" value="" style="rounded=0;whiteSpace=wrap;html=1;" vertex="1" parent="n13ThCYYshuHah-QFAla-1">
          <mxGeometry x="20" y="100" width="1130" height="60" as="geometry" />
        </mxCell>
        <mxCell id="n13ThCYYshuHah-QFAla-7" value="Device Count for &quot;Device Name&quot;" style="text;strokeColor=none;fillColor=none;html=1;fontSize=24;fontStyle=1;verticalAlign=middle;align=center;" vertex="1" parent="n13ThCYYshuHah-QFAla-1">
          <mxGeometry x="535" y="110" width="100" height="40" as="geometry" />
        </mxCell>
        <mxCell id="1zFnjrXnWJbt8HgHoR2n-0" value="" style="verticalLabelPosition=bottom;shadow=0;dashed=0;align=center;html=1;verticalAlign=top;strokeWidth=1;shape=mxgraph.mockup.graphics.lineChart;strokeColor=none;strokeColor2=#666666;strokeColor3=#008cff;strokeColor4=#dddddd;" vertex="1" parent="n13ThCYYshuHah-QFAla-1">
          <mxGeometry x="50" y="190" width="660" height="540" as="geometry" />
        </mxCell>
        <mxCell id="1zFnjrXnWJbt8HgHoR2n-2" value="" style="rounded=0;whiteSpace=wrap;html=1;" vertex="1" parent="n13ThCYYshuHah-QFAla-1">
          <mxGeometry x="820" y="180" width="270" height="50" as="geometry" />
        </mxCell>
        <mxCell id="1zFnjrXnWJbt8HgHoR2n-4" value="" style="rounded=0;whiteSpace=wrap;html=1;" vertex="1" parent="n13ThCYYshuHah-QFAla-1">
          <mxGeometry x="820" y="380" width="270" height="50" as="geometry" />
        </mxCell>
        <mxCell id="1zFnjrXnWJbt8HgHoR2n-5" value="" style="rounded=0;whiteSpace=wrap;html=1;" vertex="1" parent="n13ThCYYshuHah-QFAla-1">
          <mxGeometry x="820" y="570" width="270" height="50" as="geometry" />
        </mxCell>
        <mxCell id="1zFnjrXnWJbt8HgHoR2n-6" value="End Date" style="text;strokeColor=none;fillColor=none;html=1;fontSize=24;fontStyle=1;verticalAlign=middle;align=center;" vertex="1" parent="n13ThCYYshuHah-QFAla-1">
          <mxGeometry x="820" y="380" width="120" height="40" as="geometry" />
        </mxCell>
        <mxCell id="1zFnjrXnWJbt8HgHoR2n-7" value="Start Date" style="text;strokeColor=none;fillColor=none;html=1;fontSize=24;fontStyle=1;verticalAlign=middle;align=center;" vertex="1" parent="n13ThCYYshuHah-QFAla-1">
          <mxGeometry x="820" y="180" width="130" height="40" as="geometry" />
        </mxCell>
        <mxCell id="1zFnjrXnWJbt8HgHoR2n-8" value="Aggregate" style="text;strokeColor=none;fillColor=none;html=1;fontSize=24;fontStyle=1;verticalAlign=middle;align=center;" vertex="1" parent="n13ThCYYshuHah-QFAla-1">
          <mxGeometry x="820" y="570" width="140" height="40" as="geometry" />
        </mxCell>
        <mxCell id="1zFnjrXnWJbt8HgHoR2n-9" value="" style="shape=image;html=1;verticalAlign=top;verticalLabelPosition=bottom;labelBackgroundColor=#ffffff;imageAspect=0;aspect=fixed;image=https://cdn1.iconfinder.com/data/icons/material-core/10/arrow-drop-down-128.png" vertex="1" parent="n13ThCYYshuHah-QFAla-1">
          <mxGeometry x="1050" y="580" width="30" height="30" as="geometry" />
        </mxCell>
        <mxCell id="1zFnjrXnWJbt8HgHoR2n-10" value="" style="shape=image;html=1;verticalAlign=top;verticalLabelPosition=bottom;labelBackgroundColor=#ffffff;imageAspect=0;aspect=fixed;image=https://cdn1.iconfinder.com/data/icons/material-core/10/arrow-drop-down-128.png" vertex="1" parent="n13ThCYYshuHah-QFAla-1">
          <mxGeometry x="1050" y="390" width="30" height="30" as="geometry" />
        </mxCell>
        <mxCell id="1zFnjrXnWJbt8HgHoR2n-11" value="" style="shape=image;html=1;verticalAlign=top;verticalLabelPosition=bottom;labelBackgroundColor=#ffffff;imageAspect=0;aspect=fixed;image=https://cdn1.iconfinder.com/data/icons/material-core/10/arrow-drop-down-128.png" vertex="1" parent="n13ThCYYshuHah-QFAla-1">
          <mxGeometry x="1050" y="190" width="30" height="30" as="geometry" />
        </mxCell>
      </root>
    </mxGraphModel>
  </diagram>
  <diagram name="View Counts Page &quot;Location&quot;" id="WnIF0-J68JvxguvNmNnT">
    <mxGraphModel dx="1426" dy="751" grid="1" gridSize="10" guides="1" tooltips="1" connect="1" arrows="1" fold="1" page="1" pageScale="1" pageWidth="1169" pageHeight="827" math="0" shadow="0">
      <root>
        <mxCell id="XG6ni_nbPxOIJmffbhH1-0" />
        <mxCell id="XG6ni_nbPxOIJmffbhH1-1" parent="XG6ni_nbPxOIJmffbhH1-0" />
        <mxCell id="XG6ni_nbPxOIJmffbhH1-2" value="" style="rounded=0;whiteSpace=wrap;html=1;" vertex="1" parent="XG6ni_nbPxOIJmffbhH1-1">
          <mxGeometry x="10" y="10" width="1150" height="70" as="geometry" />
        </mxCell>
        <mxCell id="XG6ni_nbPxOIJmffbhH1-3" value="App Nav Bar Menu" style="text;strokeColor=none;fillColor=none;html=1;fontSize=24;fontStyle=1;verticalAlign=middle;align=center;" vertex="1" parent="XG6ni_nbPxOIJmffbhH1-1">
          <mxGeometry x="460" y="25" width="250" height="40" as="geometry" />
        </mxCell>
        <mxCell id="XG6ni_nbPxOIJmffbhH1-4" value="" style="shape=image;html=1;verticalAlign=top;verticalLabelPosition=bottom;labelBackgroundColor=#ffffff;imageAspect=0;aspect=fixed;image=https://cdn4.iconfinder.com/data/icons/evil-icons-user-interface/64/menu-128.png" vertex="1" parent="XG6ni_nbPxOIJmffbhH1-1">
          <mxGeometry x="20" y="15" width="60" height="60" as="geometry" />
        </mxCell>
        <mxCell id="XG6ni_nbPxOIJmffbhH1-5" value="" style="rounded=0;whiteSpace=wrap;html=1;" vertex="1" parent="XG6ni_nbPxOIJmffbhH1-1">
          <mxGeometry x="20" y="100" width="1130" height="660" as="geometry" />
        </mxCell>
        <mxCell id="XG6ni_nbPxOIJmffbhH1-6" value="" style="rounded=0;whiteSpace=wrap;html=1;" vertex="1" parent="XG6ni_nbPxOIJmffbhH1-1">
          <mxGeometry x="20" y="100" width="1130" height="60" as="geometry" />
        </mxCell>
        <mxCell id="XG6ni_nbPxOIJmffbhH1-7" value="Location Count for &quot;Location Name&quot;" style="text;strokeColor=none;fillColor=none;html=1;fontSize=24;fontStyle=1;verticalAlign=middle;align=center;" vertex="1" parent="XG6ni_nbPxOIJmffbhH1-1">
          <mxGeometry x="535" y="110" width="100" height="40" as="geometry" />
        </mxCell>
        <mxCell id="XG6ni_nbPxOIJmffbhH1-8" value="" style="verticalLabelPosition=bottom;shadow=0;dashed=0;align=center;html=1;verticalAlign=top;strokeWidth=1;shape=mxgraph.mockup.graphics.lineChart;strokeColor=none;strokeColor2=#666666;strokeColor3=#008cff;strokeColor4=#dddddd;" vertex="1" parent="XG6ni_nbPxOIJmffbhH1-1">
          <mxGeometry x="50" y="190" width="660" height="540" as="geometry" />
        </mxCell>
        <mxCell id="XG6ni_nbPxOIJmffbhH1-9" value="" style="rounded=0;whiteSpace=wrap;html=1;" vertex="1" parent="XG6ni_nbPxOIJmffbhH1-1">
          <mxGeometry x="820" y="180" width="270" height="50" as="geometry" />
        </mxCell>
        <mxCell id="XG6ni_nbPxOIJmffbhH1-10" value="" style="rounded=0;whiteSpace=wrap;html=1;" vertex="1" parent="XG6ni_nbPxOIJmffbhH1-1">
          <mxGeometry x="820" y="380" width="270" height="50" as="geometry" />
        </mxCell>
        <mxCell id="XG6ni_nbPxOIJmffbhH1-11" value="" style="rounded=0;whiteSpace=wrap;html=1;" vertex="1" parent="XG6ni_nbPxOIJmffbhH1-1">
          <mxGeometry x="820" y="570" width="270" height="50" as="geometry" />
        </mxCell>
        <mxCell id="XG6ni_nbPxOIJmffbhH1-12" value="End Date" style="text;strokeColor=none;fillColor=none;html=1;fontSize=24;fontStyle=1;verticalAlign=middle;align=center;" vertex="1" parent="XG6ni_nbPxOIJmffbhH1-1">
          <mxGeometry x="820" y="380" width="120" height="40" as="geometry" />
        </mxCell>
        <mxCell id="XG6ni_nbPxOIJmffbhH1-13" value="Start Date" style="text;strokeColor=none;fillColor=none;html=1;fontSize=24;fontStyle=1;verticalAlign=middle;align=center;" vertex="1" parent="XG6ni_nbPxOIJmffbhH1-1">
          <mxGeometry x="820" y="180" width="130" height="40" as="geometry" />
        </mxCell>
        <mxCell id="XG6ni_nbPxOIJmffbhH1-14" value="Aggregate" style="text;strokeColor=none;fillColor=none;html=1;fontSize=24;fontStyle=1;verticalAlign=middle;align=center;" vertex="1" parent="XG6ni_nbPxOIJmffbhH1-1">
          <mxGeometry x="820" y="570" width="140" height="40" as="geometry" />
        </mxCell>
        <mxCell id="XG6ni_nbPxOIJmffbhH1-15" value="" style="shape=image;html=1;verticalAlign=top;verticalLabelPosition=bottom;labelBackgroundColor=#ffffff;imageAspect=0;aspect=fixed;image=https://cdn1.iconfinder.com/data/icons/material-core/10/arrow-drop-down-128.png" vertex="1" parent="XG6ni_nbPxOIJmffbhH1-1">
          <mxGeometry x="1050" y="580" width="30" height="30" as="geometry" />
        </mxCell>
        <mxCell id="XG6ni_nbPxOIJmffbhH1-16" value="" style="shape=image;html=1;verticalAlign=top;verticalLabelPosition=bottom;labelBackgroundColor=#ffffff;imageAspect=0;aspect=fixed;image=https://cdn1.iconfinder.com/data/icons/material-core/10/arrow-drop-down-128.png" vertex="1" parent="XG6ni_nbPxOIJmffbhH1-1">
          <mxGeometry x="1050" y="390" width="30" height="30" as="geometry" />
        </mxCell>
        <mxCell id="XG6ni_nbPxOIJmffbhH1-17" value="" style="shape=image;html=1;verticalAlign=top;verticalLabelPosition=bottom;labelBackgroundColor=#ffffff;imageAspect=0;aspect=fixed;image=https://cdn1.iconfinder.com/data/icons/material-core/10/arrow-drop-down-128.png" vertex="1" parent="XG6ni_nbPxOIJmffbhH1-1">
          <mxGeometry x="1050" y="190" width="30" height="30" as="geometry" />
        </mxCell>
      </root>
    </mxGraphModel>
  </diagram>
</mxfile>
